G04 #@! TF.GenerationSoftware,KiCad,Pcbnew,(6.0.6-0)*
G04 #@! TF.CreationDate,2022-11-05T02:26:21-04:00*
G04 #@! TF.ProjectId,Twins Switch PCB,5477696e-7320-4537-9769-746368205043,1*
G04 #@! TF.SameCoordinates,Original*
G04 #@! TF.FileFunction,Legend,Top*
G04 #@! TF.FilePolarity,Positive*
%FSLAX46Y46*%
G04 Gerber Fmt 4.6, Leading zero omitted, Abs format (unit mm)*
G04 Created by KiCad (PCBNEW (6.0.6-0)) date 2022-11-05 02:26:21*
%MOMM*%
%LPD*%
G01*
G04 APERTURE LIST*
G04 Aperture macros list*
%AMRoundRect*
0 Rectangle with rounded corners*
0 $1 Rounding radius*
0 $2 $3 $4 $5 $6 $7 $8 $9 X,Y pos of 4 corners*
0 Add a 4 corners polygon primitive as box body*
4,1,4,$2,$3,$4,$5,$6,$7,$8,$9,$2,$3,0*
0 Add four circle primitives for the rounded corners*
1,1,$1+$1,$2,$3*
1,1,$1+$1,$4,$5*
1,1,$1+$1,$6,$7*
1,1,$1+$1,$8,$9*
0 Add four rect primitives between the rounded corners*
20,1,$1+$1,$2,$3,$4,$5,0*
20,1,$1+$1,$4,$5,$6,$7,0*
20,1,$1+$1,$6,$7,$8,$9,0*
20,1,$1+$1,$8,$9,$2,$3,0*%
G04 Aperture macros list end*
%ADD10C,0.127000*%
%ADD11C,0.120000*%
%ADD12C,0.300000*%
%ADD13C,1.501600*%
%ADD14RoundRect,0.313300X0.337500X0.262500X-0.337500X0.262500X-0.337500X-0.262500X0.337500X-0.262500X0*%
%ADD15RoundRect,0.363300X-0.312500X-0.687500X0.312500X-0.687500X0.312500X0.687500X-0.312500X0.687500X0*%
G04 APERTURE END LIST*
D10*
X135780000Y-111510000D02*
X144790000Y-111510000D01*
X137280000Y-106930000D02*
X143010000Y-106930000D01*
X143010000Y-106930000D02*
X143010000Y-110480000D01*
X143010000Y-110480000D02*
X137280000Y-110480000D01*
X137280000Y-110480000D02*
X137280000Y-106930000D01*
D11*
X136477142Y-92228409D02*
X136911428Y-92228409D01*
X136694285Y-92988409D02*
X136694285Y-92228409D01*
X137092380Y-92481742D02*
X137237142Y-92988409D01*
X137381904Y-92626504D01*
X137526666Y-92988409D01*
X137671428Y-92481742D01*
X137960952Y-92988409D02*
X137960952Y-92481742D01*
X137960952Y-92228409D02*
X137924761Y-92264600D01*
X137960952Y-92300790D01*
X137997142Y-92264600D01*
X137960952Y-92228409D01*
X137960952Y-92300790D01*
X138322857Y-92481742D02*
X138322857Y-92988409D01*
X138322857Y-92554123D02*
X138359047Y-92517933D01*
X138431428Y-92481742D01*
X138540000Y-92481742D01*
X138612380Y-92517933D01*
X138648571Y-92590314D01*
X138648571Y-92988409D01*
X139842857Y-92590314D02*
X139589523Y-92590314D01*
X139589523Y-92988409D02*
X139589523Y-92228409D01*
X139951428Y-92228409D01*
X140566666Y-92988409D02*
X140566666Y-92590314D01*
X140530476Y-92517933D01*
X140458095Y-92481742D01*
X140313333Y-92481742D01*
X140240952Y-92517933D01*
X140566666Y-92952219D02*
X140494285Y-92988409D01*
X140313333Y-92988409D01*
X140240952Y-92952219D01*
X140204761Y-92879838D01*
X140204761Y-92807457D01*
X140240952Y-92735076D01*
X140313333Y-92698885D01*
X140494285Y-92698885D01*
X140566666Y-92662695D01*
X140928571Y-92988409D02*
X140928571Y-92481742D01*
X140928571Y-92554123D02*
X140964761Y-92517933D01*
X141037142Y-92481742D01*
X141145714Y-92481742D01*
X141218095Y-92517933D01*
X141254285Y-92590314D01*
X141254285Y-92988409D01*
X141254285Y-92590314D02*
X141290476Y-92517933D01*
X141362857Y-92481742D01*
X141471428Y-92481742D01*
X141543809Y-92517933D01*
X141580000Y-92590314D01*
X141580000Y-92988409D01*
X141941904Y-92988409D02*
X141941904Y-92481742D01*
X141941904Y-92228409D02*
X141905714Y-92264600D01*
X141941904Y-92300790D01*
X141978095Y-92264600D01*
X141941904Y-92228409D01*
X141941904Y-92300790D01*
X142629523Y-92952219D02*
X142557142Y-92988409D01*
X142412380Y-92988409D01*
X142340000Y-92952219D01*
X142303809Y-92916028D01*
X142267619Y-92843647D01*
X142267619Y-92626504D01*
X142303809Y-92554123D01*
X142340000Y-92517933D01*
X142412380Y-92481742D01*
X142557142Y-92481742D01*
X142629523Y-92517933D01*
X143063809Y-92988409D02*
X142991428Y-92952219D01*
X142955238Y-92916028D01*
X142919047Y-92843647D01*
X142919047Y-92626504D01*
X142955238Y-92554123D01*
X142991428Y-92517933D01*
X143063809Y-92481742D01*
X143172380Y-92481742D01*
X143244761Y-92517933D01*
X143280952Y-92554123D01*
X143317142Y-92626504D01*
X143317142Y-92843647D01*
X143280952Y-92916028D01*
X143244761Y-92952219D01*
X143172380Y-92988409D01*
X143063809Y-92988409D01*
X143642857Y-92988409D02*
X143642857Y-92481742D01*
X143642857Y-92554123D02*
X143679047Y-92517933D01*
X143751428Y-92481742D01*
X143860000Y-92481742D01*
X143932380Y-92517933D01*
X143968571Y-92590314D01*
X143968571Y-92988409D01*
X143968571Y-92590314D02*
X144004761Y-92517933D01*
X144077142Y-92481742D01*
X144185714Y-92481742D01*
X144258095Y-92517933D01*
X144294285Y-92590314D01*
X144294285Y-92988409D01*
X135083809Y-93813914D02*
X135337142Y-93813914D01*
X135445714Y-94212009D02*
X135083809Y-94212009D01*
X135083809Y-93452009D01*
X135445714Y-93452009D01*
X135699047Y-94212009D02*
X136097142Y-93705342D01*
X135699047Y-93705342D02*
X136097142Y-94212009D01*
X136386666Y-93705342D02*
X136386666Y-94465342D01*
X136386666Y-93741533D02*
X136459047Y-93705342D01*
X136603809Y-93705342D01*
X136676190Y-93741533D01*
X136712380Y-93777723D01*
X136748571Y-93850104D01*
X136748571Y-94067247D01*
X136712380Y-94139628D01*
X136676190Y-94175819D01*
X136603809Y-94212009D01*
X136459047Y-94212009D01*
X136386666Y-94175819D01*
X137400000Y-94212009D02*
X137400000Y-93813914D01*
X137363809Y-93741533D01*
X137291428Y-93705342D01*
X137146666Y-93705342D01*
X137074285Y-93741533D01*
X137400000Y-94175819D02*
X137327619Y-94212009D01*
X137146666Y-94212009D01*
X137074285Y-94175819D01*
X137038095Y-94103438D01*
X137038095Y-94031057D01*
X137074285Y-93958676D01*
X137146666Y-93922485D01*
X137327619Y-93922485D01*
X137400000Y-93886295D01*
X137761904Y-93705342D02*
X137761904Y-94212009D01*
X137761904Y-93777723D02*
X137798095Y-93741533D01*
X137870476Y-93705342D01*
X137979047Y-93705342D01*
X138051428Y-93741533D01*
X138087619Y-93813914D01*
X138087619Y-94212009D01*
X138413333Y-94175819D02*
X138485714Y-94212009D01*
X138630476Y-94212009D01*
X138702857Y-94175819D01*
X138739047Y-94103438D01*
X138739047Y-94067247D01*
X138702857Y-93994866D01*
X138630476Y-93958676D01*
X138521904Y-93958676D01*
X138449523Y-93922485D01*
X138413333Y-93850104D01*
X138413333Y-93813914D01*
X138449523Y-93741533D01*
X138521904Y-93705342D01*
X138630476Y-93705342D01*
X138702857Y-93741533D01*
X139064761Y-94212009D02*
X139064761Y-93705342D01*
X139064761Y-93452009D02*
X139028571Y-93488200D01*
X139064761Y-93524390D01*
X139100952Y-93488200D01*
X139064761Y-93452009D01*
X139064761Y-93524390D01*
X139535238Y-94212009D02*
X139462857Y-94175819D01*
X139426666Y-94139628D01*
X139390476Y-94067247D01*
X139390476Y-93850104D01*
X139426666Y-93777723D01*
X139462857Y-93741533D01*
X139535238Y-93705342D01*
X139643809Y-93705342D01*
X139716190Y-93741533D01*
X139752380Y-93777723D01*
X139788571Y-93850104D01*
X139788571Y-94067247D01*
X139752380Y-94139628D01*
X139716190Y-94175819D01*
X139643809Y-94212009D01*
X139535238Y-94212009D01*
X140114285Y-93705342D02*
X140114285Y-94212009D01*
X140114285Y-93777723D02*
X140150476Y-93741533D01*
X140222857Y-93705342D01*
X140331428Y-93705342D01*
X140403809Y-93741533D01*
X140440000Y-93813914D01*
X140440000Y-94212009D01*
X141344761Y-94175819D02*
X141453333Y-94212009D01*
X141634285Y-94212009D01*
X141706666Y-94175819D01*
X141742857Y-94139628D01*
X141779047Y-94067247D01*
X141779047Y-93994866D01*
X141742857Y-93922485D01*
X141706666Y-93886295D01*
X141634285Y-93850104D01*
X141489523Y-93813914D01*
X141417142Y-93777723D01*
X141380952Y-93741533D01*
X141344761Y-93669152D01*
X141344761Y-93596771D01*
X141380952Y-93524390D01*
X141417142Y-93488200D01*
X141489523Y-93452009D01*
X141670476Y-93452009D01*
X141779047Y-93488200D01*
X142032380Y-93705342D02*
X142177142Y-94212009D01*
X142321904Y-93850104D01*
X142466666Y-94212009D01*
X142611428Y-93705342D01*
X142900952Y-94212009D02*
X142900952Y-93705342D01*
X142900952Y-93452009D02*
X142864761Y-93488200D01*
X142900952Y-93524390D01*
X142937142Y-93488200D01*
X142900952Y-93452009D01*
X142900952Y-93524390D01*
X143154285Y-93705342D02*
X143443809Y-93705342D01*
X143262857Y-93452009D02*
X143262857Y-94103438D01*
X143299047Y-94175819D01*
X143371428Y-94212009D01*
X143443809Y-94212009D01*
X144022857Y-94175819D02*
X143950476Y-94212009D01*
X143805714Y-94212009D01*
X143733333Y-94175819D01*
X143697142Y-94139628D01*
X143660952Y-94067247D01*
X143660952Y-93850104D01*
X143697142Y-93777723D01*
X143733333Y-93741533D01*
X143805714Y-93705342D01*
X143950476Y-93705342D01*
X144022857Y-93741533D01*
X144348571Y-94212009D02*
X144348571Y-93452009D01*
X144674285Y-94212009D02*
X144674285Y-93813914D01*
X144638095Y-93741533D01*
X144565714Y-93705342D01*
X144457142Y-93705342D01*
X144384761Y-93741533D01*
X144348571Y-93777723D01*
X145325714Y-94175819D02*
X145253333Y-94212009D01*
X145108571Y-94212009D01*
X145036190Y-94175819D01*
X145000000Y-94103438D01*
X145000000Y-93813914D01*
X145036190Y-93741533D01*
X145108571Y-93705342D01*
X145253333Y-93705342D01*
X145325714Y-93741533D01*
X145361904Y-93813914D01*
X145361904Y-93886295D01*
X145000000Y-93958676D01*
X145687619Y-94212009D02*
X145687619Y-93705342D01*
X145687619Y-93850104D02*
X145723809Y-93777723D01*
X145760000Y-93741533D01*
X145832380Y-93705342D01*
X145904761Y-93705342D01*
X136820952Y-96623019D02*
X136929523Y-96659209D01*
X137110476Y-96659209D01*
X137182857Y-96623019D01*
X137219047Y-96586828D01*
X137255238Y-96514447D01*
X137255238Y-96442066D01*
X137219047Y-96369685D01*
X137182857Y-96333495D01*
X137110476Y-96297304D01*
X136965714Y-96261114D01*
X136893333Y-96224923D01*
X136857142Y-96188733D01*
X136820952Y-96116352D01*
X136820952Y-96043971D01*
X136857142Y-95971590D01*
X136893333Y-95935400D01*
X136965714Y-95899209D01*
X137146666Y-95899209D01*
X137255238Y-95935400D01*
X137508571Y-96152542D02*
X137653333Y-96659209D01*
X137798095Y-96297304D01*
X137942857Y-96659209D01*
X138087619Y-96152542D01*
X138377142Y-96659209D02*
X138377142Y-96152542D01*
X138377142Y-95899209D02*
X138340952Y-95935400D01*
X138377142Y-95971590D01*
X138413333Y-95935400D01*
X138377142Y-95899209D01*
X138377142Y-95971590D01*
X138630476Y-96152542D02*
X138920000Y-96152542D01*
X138739047Y-95899209D02*
X138739047Y-96550638D01*
X138775238Y-96623019D01*
X138847619Y-96659209D01*
X138920000Y-96659209D01*
X139499047Y-96623019D02*
X139426666Y-96659209D01*
X139281904Y-96659209D01*
X139209523Y-96623019D01*
X139173333Y-96586828D01*
X139137142Y-96514447D01*
X139137142Y-96297304D01*
X139173333Y-96224923D01*
X139209523Y-96188733D01*
X139281904Y-96152542D01*
X139426666Y-96152542D01*
X139499047Y-96188733D01*
X139824761Y-96659209D02*
X139824761Y-95899209D01*
X140150476Y-96659209D02*
X140150476Y-96261114D01*
X140114285Y-96188733D01*
X140041904Y-96152542D01*
X139933333Y-96152542D01*
X139860952Y-96188733D01*
X139824761Y-96224923D01*
X141344761Y-96261114D02*
X141453333Y-96297304D01*
X141489523Y-96333495D01*
X141525714Y-96405876D01*
X141525714Y-96514447D01*
X141489523Y-96586828D01*
X141453333Y-96623019D01*
X141380952Y-96659209D01*
X141091428Y-96659209D01*
X141091428Y-95899209D01*
X141344761Y-95899209D01*
X141417142Y-95935400D01*
X141453333Y-95971590D01*
X141489523Y-96043971D01*
X141489523Y-96116352D01*
X141453333Y-96188733D01*
X141417142Y-96224923D01*
X141344761Y-96261114D01*
X141091428Y-96261114D01*
X141960000Y-96659209D02*
X141887619Y-96623019D01*
X141851428Y-96586828D01*
X141815238Y-96514447D01*
X141815238Y-96297304D01*
X141851428Y-96224923D01*
X141887619Y-96188733D01*
X141960000Y-96152542D01*
X142068571Y-96152542D01*
X142140952Y-96188733D01*
X142177142Y-96224923D01*
X142213333Y-96297304D01*
X142213333Y-96514447D01*
X142177142Y-96586828D01*
X142140952Y-96623019D01*
X142068571Y-96659209D01*
X141960000Y-96659209D01*
X142864761Y-96659209D02*
X142864761Y-96261114D01*
X142828571Y-96188733D01*
X142756190Y-96152542D01*
X142611428Y-96152542D01*
X142539047Y-96188733D01*
X142864761Y-96623019D02*
X142792380Y-96659209D01*
X142611428Y-96659209D01*
X142539047Y-96623019D01*
X142502857Y-96550638D01*
X142502857Y-96478257D01*
X142539047Y-96405876D01*
X142611428Y-96369685D01*
X142792380Y-96369685D01*
X142864761Y-96333495D01*
X143226666Y-96659209D02*
X143226666Y-96152542D01*
X143226666Y-96297304D02*
X143262857Y-96224923D01*
X143299047Y-96188733D01*
X143371428Y-96152542D01*
X143443809Y-96152542D01*
X144022857Y-96659209D02*
X144022857Y-95899209D01*
X144022857Y-96623019D02*
X143950476Y-96659209D01*
X143805714Y-96659209D01*
X143733333Y-96623019D01*
X143697142Y-96586828D01*
X143660952Y-96514447D01*
X143660952Y-96297304D01*
X143697142Y-96224923D01*
X143733333Y-96188733D01*
X143805714Y-96152542D01*
X143950476Y-96152542D01*
X144022857Y-96188733D01*
D12*
X138355714Y-107978571D02*
X139212857Y-107978571D01*
X138784285Y-109478571D02*
X138784285Y-107978571D01*
X139998571Y-107978571D02*
X140284285Y-107978571D01*
X140427142Y-108050000D01*
X140570000Y-108192857D01*
X140641428Y-108478571D01*
X140641428Y-108978571D01*
X140570000Y-109264285D01*
X140427142Y-109407142D01*
X140284285Y-109478571D01*
X139998571Y-109478571D01*
X139855714Y-109407142D01*
X139712857Y-109264285D01*
X139641428Y-108978571D01*
X139641428Y-108478571D01*
X139712857Y-108192857D01*
X139855714Y-108050000D01*
X139998571Y-107978571D01*
X141284285Y-109478571D02*
X141284285Y-107978571D01*
X141855714Y-107978571D01*
X141998571Y-108050000D01*
X142070000Y-108121428D01*
X142141428Y-108264285D01*
X142141428Y-108478571D01*
X142070000Y-108621428D01*
X141998571Y-108692857D01*
X141855714Y-108764285D01*
X141284285Y-108764285D01*
D11*
X137574888Y-112649821D02*
X137677566Y-112685535D01*
X137856138Y-112685535D01*
X137932031Y-112649821D01*
X137972209Y-112614107D01*
X138016852Y-112542678D01*
X138025781Y-112471250D01*
X137998995Y-112399821D01*
X137967745Y-112364107D01*
X137900781Y-112328392D01*
X137762388Y-112292678D01*
X137695424Y-112256964D01*
X137664174Y-112221250D01*
X137637388Y-112149821D01*
X137646316Y-112078392D01*
X137690959Y-112006964D01*
X137731138Y-111971250D01*
X137807031Y-111935535D01*
X137985602Y-111935535D01*
X138088281Y-111971250D01*
X138311495Y-112185535D02*
X138391852Y-112685535D01*
X138579352Y-112328392D01*
X138677566Y-112685535D01*
X138882924Y-112185535D01*
X139106138Y-112685535D02*
X139168638Y-112185535D01*
X139199888Y-111935535D02*
X139159709Y-111971250D01*
X139190959Y-112006964D01*
X139231138Y-111971250D01*
X139199888Y-111935535D01*
X139190959Y-112006964D01*
X139418638Y-112185535D02*
X139704352Y-112185535D01*
X139557031Y-111935535D02*
X139476674Y-112578392D01*
X139503459Y-112649821D01*
X139570424Y-112685535D01*
X139641852Y-112685535D01*
X140217745Y-112649821D02*
X140141852Y-112685535D01*
X139998995Y-112685535D01*
X139932031Y-112649821D01*
X139900781Y-112614107D01*
X139873995Y-112542678D01*
X139900781Y-112328392D01*
X139945424Y-112256964D01*
X139985602Y-112221250D01*
X140061495Y-112185535D01*
X140204352Y-112185535D01*
X140271316Y-112221250D01*
X140534709Y-112685535D02*
X140628459Y-111935535D01*
X140856138Y-112685535D02*
X140905245Y-112292678D01*
X140878459Y-112221250D01*
X140811495Y-112185535D01*
X140704352Y-112185535D01*
X140628459Y-112221250D01*
X140588281Y-112256964D01*
X142021316Y-111935535D02*
X142164174Y-111935535D01*
X142231138Y-111971250D01*
X142293638Y-112042678D01*
X142311495Y-112185535D01*
X142280245Y-112435535D01*
X142226674Y-112578392D01*
X142146316Y-112649821D01*
X142070424Y-112685535D01*
X141927566Y-112685535D01*
X141860602Y-112649821D01*
X141798102Y-112578392D01*
X141780245Y-112435535D01*
X141811495Y-112185535D01*
X141865066Y-112042678D01*
X141945424Y-111971250D01*
X142021316Y-111935535D01*
X142632924Y-112185535D02*
X142570424Y-112685535D01*
X142623995Y-112256964D02*
X142664174Y-112221250D01*
X142740066Y-112185535D01*
X142847209Y-112185535D01*
X142914174Y-112221250D01*
X142940959Y-112292678D01*
X142891852Y-112685535D01*
X138744531Y-113500178D02*
X138847209Y-113535892D01*
X138878459Y-113571607D01*
X138905245Y-113643035D01*
X138891852Y-113750178D01*
X138847209Y-113821607D01*
X138807031Y-113857321D01*
X138731138Y-113893035D01*
X138445424Y-113893035D01*
X138539174Y-113143035D01*
X138789174Y-113143035D01*
X138856138Y-113178750D01*
X138887388Y-113214464D01*
X138914174Y-113285892D01*
X138905245Y-113357321D01*
X138860602Y-113428750D01*
X138820424Y-113464464D01*
X138744531Y-113500178D01*
X138494531Y-113500178D01*
X139302566Y-113893035D02*
X139235602Y-113857321D01*
X139204352Y-113821607D01*
X139177566Y-113750178D01*
X139204352Y-113535892D01*
X139248995Y-113464464D01*
X139289174Y-113428750D01*
X139365066Y-113393035D01*
X139472209Y-113393035D01*
X139539174Y-113428750D01*
X139570424Y-113464464D01*
X139597209Y-113535892D01*
X139570424Y-113750178D01*
X139525781Y-113821607D01*
X139485602Y-113857321D01*
X139409709Y-113893035D01*
X139302566Y-113893035D01*
X139829352Y-113393035D02*
X140115066Y-113393035D01*
X139967745Y-113143035D02*
X139887388Y-113785892D01*
X139914174Y-113857321D01*
X139981138Y-113893035D01*
X140052566Y-113893035D01*
X140257924Y-113393035D02*
X140543638Y-113393035D01*
X140396316Y-113143035D02*
X140315959Y-113785892D01*
X140342745Y-113857321D01*
X140409709Y-113893035D01*
X140481138Y-113893035D01*
X140838281Y-113893035D02*
X140771316Y-113857321D01*
X140740066Y-113821607D01*
X140713281Y-113750178D01*
X140740066Y-113535892D01*
X140784709Y-113464464D01*
X140824888Y-113428750D01*
X140900781Y-113393035D01*
X141007924Y-113393035D01*
X141074888Y-113428750D01*
X141106138Y-113464464D01*
X141132924Y-113535892D01*
X141106138Y-113750178D01*
X141061495Y-113821607D01*
X141021316Y-113857321D01*
X140945424Y-113893035D01*
X140838281Y-113893035D01*
X141409709Y-113893035D02*
X141472209Y-113393035D01*
X141463281Y-113464464D02*
X141503459Y-113428750D01*
X141579352Y-113393035D01*
X141686495Y-113393035D01*
X141753459Y-113428750D01*
X141780245Y-113500178D01*
X141731138Y-113893035D01*
X141780245Y-113500178D02*
X141824888Y-113428750D01*
X141900781Y-113393035D01*
X142007924Y-113393035D01*
X142074888Y-113428750D01*
X142101674Y-113500178D01*
X142052566Y-113893035D01*
D10*
X140679571Y-100069304D02*
X140679571Y-100613590D01*
X140643285Y-100722447D01*
X140570714Y-100795018D01*
X140461857Y-100831304D01*
X140389285Y-100831304D01*
X141332714Y-100795018D02*
X141260142Y-100831304D01*
X141115000Y-100831304D01*
X141042428Y-100795018D01*
X141006142Y-100722447D01*
X141006142Y-100432161D01*
X141042428Y-100359590D01*
X141115000Y-100323304D01*
X141260142Y-100323304D01*
X141332714Y-100359590D01*
X141369000Y-100432161D01*
X141369000Y-100504732D01*
X141006142Y-100577304D01*
X141586714Y-100323304D02*
X141877000Y-100323304D01*
X141695571Y-100831304D02*
X141695571Y-100178161D01*
X141731857Y-100105590D01*
X141804428Y-100069304D01*
X141877000Y-100069304D01*
X142022142Y-100323304D02*
X142312428Y-100323304D01*
X142131000Y-100831304D02*
X142131000Y-100178161D01*
X142167285Y-100105590D01*
X142239857Y-100069304D01*
X142312428Y-100069304D01*
X143582428Y-100758732D02*
X143546142Y-100795018D01*
X143437285Y-100831304D01*
X143364714Y-100831304D01*
X143255857Y-100795018D01*
X143183285Y-100722447D01*
X143147000Y-100649875D01*
X143110714Y-100504732D01*
X143110714Y-100395875D01*
X143147000Y-100250732D01*
X143183285Y-100178161D01*
X143255857Y-100105590D01*
X143364714Y-100069304D01*
X143437285Y-100069304D01*
X143546142Y-100105590D01*
X143582428Y-100141875D01*
X143909000Y-100831304D02*
X143909000Y-100069304D01*
X144235571Y-100831304D02*
X144235571Y-100432161D01*
X144199285Y-100359590D01*
X144126714Y-100323304D01*
X144017857Y-100323304D01*
X143945285Y-100359590D01*
X143909000Y-100395875D01*
X144888714Y-100795018D02*
X144816142Y-100831304D01*
X144671000Y-100831304D01*
X144598428Y-100795018D01*
X144562142Y-100722447D01*
X144562142Y-100432161D01*
X144598428Y-100359590D01*
X144671000Y-100323304D01*
X144816142Y-100323304D01*
X144888714Y-100359590D01*
X144925000Y-100432161D01*
X144925000Y-100504732D01*
X144562142Y-100577304D01*
X145251571Y-100323304D02*
X145251571Y-100831304D01*
X145251571Y-100395875D02*
X145287857Y-100359590D01*
X145360428Y-100323304D01*
X145469285Y-100323304D01*
X145541857Y-100359590D01*
X145578142Y-100432161D01*
X145578142Y-100831304D01*
X141713714Y-101368695D02*
X141750000Y-101332410D01*
X141822571Y-101296124D01*
X142004000Y-101296124D01*
X142076571Y-101332410D01*
X142112857Y-101368695D01*
X142149142Y-101441267D01*
X142149142Y-101513838D01*
X142112857Y-101622695D01*
X141677428Y-102058124D01*
X142149142Y-102058124D01*
X142620857Y-101296124D02*
X142693428Y-101296124D01*
X142766000Y-101332410D01*
X142802285Y-101368695D01*
X142838571Y-101441267D01*
X142874857Y-101586410D01*
X142874857Y-101767838D01*
X142838571Y-101912981D01*
X142802285Y-101985552D01*
X142766000Y-102021838D01*
X142693428Y-102058124D01*
X142620857Y-102058124D01*
X142548285Y-102021838D01*
X142512000Y-101985552D01*
X142475714Y-101912981D01*
X142439428Y-101767838D01*
X142439428Y-101586410D01*
X142475714Y-101441267D01*
X142512000Y-101368695D01*
X142548285Y-101332410D01*
X142620857Y-101296124D01*
X143165142Y-101368695D02*
X143201428Y-101332410D01*
X143274000Y-101296124D01*
X143455428Y-101296124D01*
X143528000Y-101332410D01*
X143564285Y-101368695D01*
X143600571Y-101441267D01*
X143600571Y-101513838D01*
X143564285Y-101622695D01*
X143128857Y-102058124D01*
X143600571Y-102058124D01*
X143890857Y-101368695D02*
X143927142Y-101332410D01*
X143999714Y-101296124D01*
X144181142Y-101296124D01*
X144253714Y-101332410D01*
X144290000Y-101368695D01*
X144326285Y-101441267D01*
X144326285Y-101513838D01*
X144290000Y-101622695D01*
X143854571Y-102058124D01*
X144326285Y-102058124D01*
%LPC*%
D13*
X133990000Y-97630000D03*
X146670000Y-92630000D03*
X133990000Y-95130000D03*
X146670000Y-95130000D03*
X146670000Y-97630000D03*
X133990000Y-92630000D03*
D14*
X142320000Y-114890000D03*
X140320000Y-114890000D03*
X138320000Y-114890000D03*
X142320000Y-117390000D03*
X140320000Y-117390000D03*
X138320000Y-117390000D03*
D15*
X145320000Y-116140000D03*
X135320000Y-116140000D03*
M02*
