M48
; DRILL file {KiCad (6.0.6-0)} date Saturday, 05 November 2022 at 02:26:22
; FORMAT={-:-/ absolute / inch / decimal}
; #@! TF.CreationDate,2022-11-05T02:26:22-04:00
; #@! TF.GenerationSoftware,Kicad,Pcbnew,(6.0.6-0)
; #@! TF.FileFunction,MixedPlating,1,2
FMAT,2
INCH
; #@! TA.AperFunction,Plated,PTH,ComponentDrill
T1C0.0217
; #@! TA.AperFunction,Plated,PTH,ComponentDrill
T2C0.0295
; #@! TA.AperFunction,Plated,PTH,ComponentDrill
T3C0.0354
%
G90
G05
T3
X5.2752Y-3.6469
X5.2752Y-3.7453
X5.2752Y-3.8437
X5.7744Y-3.6469
X5.7744Y-3.7453
X5.7744Y-3.8437
T1
G00X5.4486Y-4.5232
M15
G01X5.4427Y-4.5232
M16
G05
G00X5.4486Y-4.6217
M15
G01X5.4427Y-4.6217
M16
G05
G00X5.5274Y-4.5232
M15
G01X5.5215Y-4.5232
M16
G05
G00X5.5274Y-4.6217
M15
G01X5.5215Y-4.6217
M16
G05
G00X5.6061Y-4.5232
M15
G01X5.6002Y-4.5232
M16
G05
G00X5.6061Y-4.6217
M15
G01X5.6002Y-4.6217
M16
G05
T2
G00X5.3276Y-4.5577
M15
G01X5.3276Y-4.5872
M16
G05
G00X5.7213Y-4.5577
M15
G01X5.7213Y-4.5872
M16
G05
T0
M30
