M48
; DRILL file {KiCad (6.0.6-0)} date Saturday, 05 November 2022 at 02:28:40
; FORMAT={-:-/ absolute / inch / decimal}
; #@! TF.CreationDate,2022-11-05T02:28:40-04:00
; #@! TF.GenerationSoftware,Kicad,Pcbnew,(6.0.6-0)
; #@! TF.FileFunction,MixedPlating,1,2
FMAT,2
INCH
; #@! TA.AperFunction,Plated,PTH,ViaDrill
T1C0.0118
; #@! TA.AperFunction,Plated,PTH,ComponentDrill
T2C0.0354
%
G90
G05
T1
X4.8307Y-4.1181
X4.8929Y-3.9469
X4.9183Y-4.1959
X4.9571Y-3.9559
X4.9894Y-4.0937
X5.0256Y-4.0738
X5.0697Y-3.913
X5.1343Y-3.948
X5.261Y-4.0937
X5.3219Y-3.8327
X5.4793Y-4.1398
X5.5075Y-4.0335
X5.537Y-4.0831
X5.6535Y-3.9862
X5.6565Y-4.1339
X5.6565Y-4.1998
X5.8134Y-3.8917
X6.0134Y-3.9047
X6.0945Y-3.9459
X6.2766Y-3.9715
X6.3809Y-4.0413
T2
X5.4085Y-3.936
X5.4085Y-4.0344
X5.4085Y-4.1329
X5.9065Y-3.936
X5.9065Y-4.0344
X5.9065Y-4.1329
X6.2943Y-3.9045
X6.2943Y-4.2037
X6.3927Y-3.9045
X6.3927Y-4.2037
T2
G00X4.7234Y-3.8661
M15
G01X4.7726Y-3.8661
M16
G05
G00X4.7234Y-4.1644
M15
G01X4.7726Y-4.1644
M16
G05
G00X5.1171Y-3.8661
M15
G01X5.1663Y-3.8661
M16
G05
G00X5.1171Y-4.1644
M15
G01X5.1663Y-4.1644
M16
G05
T0
M30
