M48
; DRILL file {KiCad (6.0.6-0)} date Tuesday, 13 September 2022 at 12:01:51
; FORMAT={-:-/ absolute / inch / decimal}
; #@! TF.CreationDate,2022-09-13T12:01:51-04:00
; #@! TF.GenerationSoftware,Kicad,Pcbnew,(6.0.6-0)
; #@! TF.FileFunction,MixedPlating,1,2
FMAT,2
INCH
; #@! TA.AperFunction,Plated,PTH,ViaDrill
T1C0.0118
; #@! TA.AperFunction,Plated,PTH,ComponentDrill
T2C0.0295
%
G90
G05
T1
X4.6669Y-4.0504
X4.6669Y-4.1504
X4.6673Y-4.2504
X4.7701Y-4.27
X4.8949Y-4.25
X4.9341Y-4.0512
X5.1978Y-4.2047
X5.2539Y-4.2949
X5.435Y-4.2057
X5.5886Y-4.2943
X5.7311Y-4.2067
X5.9067Y-4.2909
X6.0098Y-4.0502
X6.0685Y-4.2
X6.0689Y-4.2618
X6.1417Y-4.2844
X6.2687Y-4.2421
X6.3612Y-4.2943
T2
X4.737Y-4.1173
X4.8157Y-4.1173
X4.8945Y-4.1173
X4.9732Y-4.1173
X5.052Y-4.1173
X5.1307Y-4.1173
X5.9705Y-4.1173
X6.0492Y-4.1173
X6.128Y-4.1173
X6.2067Y-4.1173
X6.2854Y-4.1173
T0
M30
