G04 #@! TF.GenerationSoftware,KiCad,Pcbnew,(6.0.6-0)*
G04 #@! TF.CreationDate,2022-09-13T12:01:49-04:00*
G04 #@! TF.ProjectId,Internal Controller Board,496e7465-726e-4616-9c20-436f6e74726f,1*
G04 #@! TF.SameCoordinates,Original*
G04 #@! TF.FileFunction,Copper,L2,Bot*
G04 #@! TF.FilePolarity,Positive*
%FSLAX46Y46*%
G04 Gerber Fmt 4.6, Leading zero omitted, Abs format (unit mm)*
G04 Created by KiCad (PCBNEW (6.0.6-0)) date 2022-09-13 12:01:49*
%MOMM*%
%LPD*%
G01*
G04 APERTURE LIST*
G04 #@! TA.AperFunction,ComponentPad*
%ADD10C,1.500000*%
G04 #@! TD*
G04 #@! TA.AperFunction,ViaPad*
%ADD11C,0.700000*%
G04 #@! TD*
G04 #@! TA.AperFunction,Conductor*
%ADD12C,0.250000*%
G04 #@! TD*
G04 APERTURE END LIST*
D10*
X120320000Y-104580000D03*
X122320000Y-104580000D03*
X124320000Y-104580000D03*
X126320000Y-104580000D03*
X128320000Y-104580000D03*
X130320000Y-104580000D03*
X151650000Y-104580000D03*
X153650000Y-104580000D03*
X155650000Y-104580000D03*
X157650000Y-104580000D03*
X159650000Y-104580000D03*
D11*
X141950000Y-109075000D03*
X156000000Y-108825000D03*
X159225000Y-107750000D03*
X150030000Y-108990000D03*
X154140000Y-106680000D03*
X118540000Y-105420000D03*
X124330000Y-107950000D03*
X118550000Y-107960000D03*
X154150000Y-108250000D03*
X152650000Y-102875000D03*
X145570000Y-106850000D03*
X161575000Y-109075000D03*
X118540000Y-102880000D03*
X138050000Y-106825000D03*
X125325000Y-102900000D03*
X132025000Y-106800000D03*
X133450000Y-109090000D03*
X121160000Y-108458000D03*
D12*
X159225000Y-107750000D02*
X159070000Y-107750000D01*
X159070000Y-107750000D02*
X157280000Y-109540000D01*
X159650000Y-107325000D02*
X159650000Y-104580000D01*
X159225000Y-107750000D02*
X159650000Y-107325000D01*
X157280000Y-109540000D02*
X150580000Y-109540000D01*
X150580000Y-109540000D02*
X150030000Y-108990000D01*
X148700000Y-108000000D02*
X128175000Y-108000000D01*
X119340000Y-106220000D02*
X118540000Y-105420000D01*
X154140000Y-106680000D02*
X153580000Y-107240000D01*
X149460000Y-107240000D02*
X148700000Y-108000000D01*
X128175000Y-108000000D02*
X126395000Y-106220000D01*
X126395000Y-106220000D02*
X119340000Y-106220000D01*
X153580000Y-107240000D02*
X149460000Y-107240000D01*
X124330000Y-107950000D02*
X123568000Y-107188000D01*
X123568000Y-107188000D02*
X119322000Y-107188000D01*
X119322000Y-107188000D02*
X118550000Y-107960000D01*
X154150000Y-108250000D02*
X155100000Y-108250000D01*
X155100000Y-108250000D02*
X155750000Y-107600000D01*
X155750000Y-106680000D02*
X153650000Y-104580000D01*
X155750000Y-107600000D02*
X155750000Y-106680000D01*
X152655000Y-102870000D02*
X152650000Y-102875000D01*
X148125000Y-106850000D02*
X149650000Y-105325000D01*
X149650000Y-103360000D02*
X150135000Y-102875000D01*
X161580000Y-103450000D02*
X161000000Y-102870000D01*
X150135000Y-102875000D02*
X152650000Y-102875000D01*
X149650000Y-105325000D02*
X149650000Y-103360000D01*
X161000000Y-102870000D02*
X152655000Y-102870000D01*
X161580000Y-109070000D02*
X161580000Y-103450000D01*
X145570000Y-106850000D02*
X148125000Y-106850000D01*
X161575000Y-109075000D02*
X161580000Y-109070000D01*
X132025000Y-106800000D02*
X132150000Y-106925000D01*
X118540000Y-102880000D02*
X125305000Y-102880000D01*
X125305000Y-102880000D02*
X125325000Y-102900000D01*
X131980000Y-103390000D02*
X131470000Y-102880000D01*
X132150000Y-106925000D02*
X137950000Y-106925000D01*
X132025000Y-106800000D02*
X131980000Y-106755000D01*
X131980000Y-106755000D02*
X131980000Y-103390000D01*
X131470000Y-102880000D02*
X125345000Y-102880000D01*
X137950000Y-106925000D02*
X138050000Y-106825000D01*
X125345000Y-102880000D02*
X125325000Y-102900000D01*
X121538000Y-108458000D02*
X122170000Y-109090000D01*
X121160000Y-108458000D02*
X121538000Y-108458000D01*
X122170000Y-109090000D02*
X133450000Y-109090000D01*
G04 #@! TA.AperFunction,Conductor*
G36*
X161662514Y-102001569D02*
G01*
X161679564Y-102004959D01*
X161687193Y-102003441D01*
X161694976Y-102003441D01*
X161694976Y-102003451D01*
X161707728Y-102002824D01*
X161789019Y-102010827D01*
X161818135Y-102013693D01*
X161833324Y-102016714D01*
X161959120Y-102054868D01*
X161973429Y-102060794D01*
X162089369Y-102122760D01*
X162102242Y-102131361D01*
X162203865Y-102214756D01*
X162214816Y-102225706D01*
X162289693Y-102316939D01*
X162298215Y-102327323D01*
X162306819Y-102340200D01*
X162368791Y-102456136D01*
X162374718Y-102470445D01*
X162412878Y-102596240D01*
X162415900Y-102611429D01*
X162426759Y-102721673D01*
X162426110Y-102734869D01*
X162426110Y-102742368D01*
X162424592Y-102750000D01*
X162426110Y-102757631D01*
X162426110Y-102757634D01*
X162427946Y-102766865D01*
X162429464Y-102782363D01*
X162422560Y-109080050D01*
X162421044Y-109095364D01*
X162419134Y-109104974D01*
X162419134Y-109104977D01*
X162417617Y-109112608D01*
X162419136Y-109120240D01*
X162419137Y-109128018D01*
X162419126Y-109128018D01*
X162419754Y-109140769D01*
X162411308Y-109226626D01*
X162408893Y-109251169D01*
X162405873Y-109266360D01*
X162367724Y-109392157D01*
X162361797Y-109406468D01*
X162305726Y-109511382D01*
X162299838Y-109522398D01*
X162291239Y-109535270D01*
X162207834Y-109636901D01*
X162196901Y-109647834D01*
X162095270Y-109731239D01*
X162082398Y-109739838D01*
X161966468Y-109801797D01*
X161952157Y-109807724D01*
X161826360Y-109845873D01*
X161811169Y-109848893D01*
X161799591Y-109850032D01*
X161700769Y-109859754D01*
X161688018Y-109859126D01*
X161688018Y-109859137D01*
X161680240Y-109859136D01*
X161672608Y-109857617D01*
X161664977Y-109859134D01*
X161664975Y-109859134D01*
X161655543Y-109861009D01*
X161640141Y-109862525D01*
X157679234Y-109862525D01*
X157628454Y-109844043D01*
X157601434Y-109797243D01*
X157610818Y-109744025D01*
X157623373Y-109727664D01*
X158995334Y-108355703D01*
X159044310Y-108332865D01*
X159067977Y-108334936D01*
X159068238Y-108335044D01*
X159225000Y-108355682D01*
X159381762Y-108335044D01*
X159386548Y-108333061D01*
X159386550Y-108333061D01*
X159446021Y-108308427D01*
X159527841Y-108274536D01*
X159531950Y-108271383D01*
X159531952Y-108271382D01*
X159649178Y-108181431D01*
X159653282Y-108178282D01*
X159712102Y-108101626D01*
X159746382Y-108056952D01*
X159746383Y-108056950D01*
X159749536Y-108052841D01*
X159810044Y-107906762D01*
X159830682Y-107750000D01*
X159827083Y-107722664D01*
X159838779Y-107669907D01*
X159849546Y-107656492D01*
X159881227Y-107624811D01*
X159894234Y-107614305D01*
X159900726Y-107610113D01*
X159906210Y-107606572D01*
X159928450Y-107578361D01*
X159934629Y-107571409D01*
X159937576Y-107568462D01*
X159939472Y-107565809D01*
X159939476Y-107565804D01*
X159949308Y-107552045D01*
X159951544Y-107549066D01*
X159952459Y-107547906D01*
X159965220Y-107531718D01*
X159979560Y-107513529D01*
X159979561Y-107513527D01*
X159983603Y-107508400D01*
X159985768Y-107502237D01*
X159986416Y-107501057D01*
X159986877Y-107500324D01*
X159987151Y-107499797D01*
X159987483Y-107499005D01*
X159988078Y-107497791D01*
X159991872Y-107492481D01*
X159995255Y-107481171D01*
X160006719Y-107442837D01*
X160007862Y-107439320D01*
X160025023Y-107390452D01*
X160025500Y-107384945D01*
X160025500Y-107383543D01*
X160025913Y-107378658D01*
X160027691Y-107372713D01*
X160027387Y-107364956D01*
X160025561Y-107318503D01*
X160025500Y-107315401D01*
X160025500Y-105559871D01*
X160043982Y-105509091D01*
X160068880Y-105489357D01*
X160188689Y-105428837D01*
X160274918Y-105361468D01*
X160340261Y-105310417D01*
X160340263Y-105310415D01*
X160343303Y-105308040D01*
X160444642Y-105190637D01*
X160468989Y-105162431D01*
X160468991Y-105162428D01*
X160471509Y-105159511D01*
X160489694Y-105127501D01*
X160566517Y-104992268D01*
X160566518Y-104992266D01*
X160568425Y-104988909D01*
X160574860Y-104969564D01*
X160629137Y-104806404D01*
X160629138Y-104806399D01*
X160630358Y-104802732D01*
X160633885Y-104774817D01*
X160636882Y-104751087D01*
X160654949Y-104608071D01*
X160655341Y-104580000D01*
X160636194Y-104384728D01*
X160579484Y-104196894D01*
X160577673Y-104193489D01*
X160577671Y-104193483D01*
X160489182Y-104027061D01*
X160487370Y-104023653D01*
X160477880Y-104012016D01*
X160365802Y-103874595D01*
X160363361Y-103871602D01*
X160212180Y-103746535D01*
X160202288Y-103741186D01*
X160137716Y-103706273D01*
X160039585Y-103653213D01*
X159852152Y-103595193D01*
X159657019Y-103574683D01*
X159653173Y-103575033D01*
X159653172Y-103575033D01*
X159602519Y-103579643D01*
X159461618Y-103592466D01*
X159457911Y-103593557D01*
X159277102Y-103646772D01*
X159277099Y-103646773D01*
X159273393Y-103647864D01*
X159269966Y-103649656D01*
X159269965Y-103649656D01*
X159102937Y-103736976D01*
X159102934Y-103736978D01*
X159099512Y-103738767D01*
X159096505Y-103741185D01*
X159096503Y-103741186D01*
X159087593Y-103748350D01*
X158946600Y-103861711D01*
X158820480Y-104012016D01*
X158818618Y-104015404D01*
X158818616Y-104015406D01*
X158727818Y-104180567D01*
X158725956Y-104183954D01*
X158724787Y-104187639D01*
X158723266Y-104191188D01*
X158721717Y-104190524D01*
X158692394Y-104228577D01*
X158639612Y-104240165D01*
X158591730Y-104215114D01*
X158580000Y-104196620D01*
X158579484Y-104196894D01*
X158489182Y-104027061D01*
X158487370Y-104023653D01*
X158477880Y-104012016D01*
X158365802Y-103874595D01*
X158363361Y-103871602D01*
X158212180Y-103746535D01*
X158202288Y-103741186D01*
X158137716Y-103706273D01*
X158039585Y-103653213D01*
X157852152Y-103595193D01*
X157657019Y-103574683D01*
X157653173Y-103575033D01*
X157653172Y-103575033D01*
X157602519Y-103579643D01*
X157461618Y-103592466D01*
X157457911Y-103593557D01*
X157277102Y-103646772D01*
X157277099Y-103646773D01*
X157273393Y-103647864D01*
X157269966Y-103649656D01*
X157269965Y-103649656D01*
X157102937Y-103736976D01*
X157102934Y-103736978D01*
X157099512Y-103738767D01*
X157096505Y-103741185D01*
X157096503Y-103741186D01*
X157087593Y-103748350D01*
X156946600Y-103861711D01*
X156820480Y-104012016D01*
X156818618Y-104015404D01*
X156818616Y-104015406D01*
X156727818Y-104180567D01*
X156725956Y-104183954D01*
X156724787Y-104187639D01*
X156723266Y-104191188D01*
X156721717Y-104190524D01*
X156692394Y-104228577D01*
X156639612Y-104240165D01*
X156591730Y-104215114D01*
X156580000Y-104196620D01*
X156579484Y-104196894D01*
X156489182Y-104027061D01*
X156487370Y-104023653D01*
X156477880Y-104012016D01*
X156365802Y-103874595D01*
X156363361Y-103871602D01*
X156212180Y-103746535D01*
X156202288Y-103741186D01*
X156137716Y-103706273D01*
X156039585Y-103653213D01*
X155852152Y-103595193D01*
X155657019Y-103574683D01*
X155653173Y-103575033D01*
X155653172Y-103575033D01*
X155602519Y-103579643D01*
X155461618Y-103592466D01*
X155457911Y-103593557D01*
X155277102Y-103646772D01*
X155277099Y-103646773D01*
X155273393Y-103647864D01*
X155269966Y-103649656D01*
X155269965Y-103649656D01*
X155102937Y-103736976D01*
X155102934Y-103736978D01*
X155099512Y-103738767D01*
X155096505Y-103741185D01*
X155096503Y-103741186D01*
X155087593Y-103748350D01*
X154946600Y-103861711D01*
X154820480Y-104012016D01*
X154818618Y-104015404D01*
X154818616Y-104015406D01*
X154727818Y-104180567D01*
X154725956Y-104183954D01*
X154724787Y-104187639D01*
X154723266Y-104191188D01*
X154721717Y-104190524D01*
X154692394Y-104228577D01*
X154639612Y-104240165D01*
X154591730Y-104215114D01*
X154580000Y-104196620D01*
X154579484Y-104196894D01*
X154489182Y-104027061D01*
X154487370Y-104023653D01*
X154477880Y-104012016D01*
X154365802Y-103874595D01*
X154363361Y-103871602D01*
X154212180Y-103746535D01*
X154202288Y-103741186D01*
X154137716Y-103706273D01*
X154039585Y-103653213D01*
X153852152Y-103595193D01*
X153657019Y-103574683D01*
X153653173Y-103575033D01*
X153653172Y-103575033D01*
X153602519Y-103579643D01*
X153461618Y-103592466D01*
X153457911Y-103593557D01*
X153277102Y-103646772D01*
X153277099Y-103646773D01*
X153273393Y-103647864D01*
X153269966Y-103649656D01*
X153269965Y-103649656D01*
X153102937Y-103736976D01*
X153102934Y-103736978D01*
X153099512Y-103738767D01*
X153096505Y-103741185D01*
X153096503Y-103741186D01*
X153087593Y-103748350D01*
X152946600Y-103861711D01*
X152820480Y-104012016D01*
X152818618Y-104015404D01*
X152818616Y-104015406D01*
X152727818Y-104180567D01*
X152725956Y-104183954D01*
X152724787Y-104187639D01*
X152723266Y-104191188D01*
X152721967Y-104190631D01*
X152692172Y-104229313D01*
X152639392Y-104240912D01*
X152591505Y-104215871D01*
X152579443Y-104196861D01*
X152579020Y-104197086D01*
X152494172Y-104037510D01*
X152485733Y-104029911D01*
X152484226Y-104029858D01*
X152481018Y-104031824D01*
X151942694Y-104570149D01*
X151937894Y-104580443D01*
X151939580Y-104586737D01*
X152476089Y-105123247D01*
X152486382Y-105128047D01*
X152488419Y-105127501D01*
X152490283Y-105125452D01*
X152566057Y-104992066D01*
X152569183Y-104985044D01*
X152574318Y-104969607D01*
X152607884Y-104927256D01*
X152660819Y-104916389D01*
X152708355Y-104942091D01*
X152719544Y-104958431D01*
X152801119Y-105117159D01*
X152804944Y-105124601D01*
X152926818Y-105278369D01*
X152929759Y-105280872D01*
X152929762Y-105280875D01*
X153073292Y-105403028D01*
X153076238Y-105405535D01*
X153079612Y-105407421D01*
X153079614Y-105407422D01*
X153111308Y-105425135D01*
X153247513Y-105501257D01*
X153251184Y-105502450D01*
X153251189Y-105502452D01*
X153351787Y-105535138D01*
X153434118Y-105561889D01*
X153437959Y-105562347D01*
X153625104Y-105584663D01*
X153625105Y-105584663D01*
X153628946Y-105585121D01*
X153824576Y-105570068D01*
X153853870Y-105561889D01*
X153894552Y-105550530D01*
X154002482Y-105520395D01*
X154056361Y-105524541D01*
X154079587Y-105540624D01*
X154671848Y-106132885D01*
X154674093Y-106137700D01*
X154687115Y-106148152D01*
X155351361Y-106812398D01*
X155374199Y-106861374D01*
X155374500Y-106868259D01*
X155374500Y-107411741D01*
X155356018Y-107462521D01*
X155351361Y-107467602D01*
X154967602Y-107851361D01*
X154918626Y-107874199D01*
X154911741Y-107874500D01*
X154657741Y-107874500D01*
X154606961Y-107856018D01*
X154595069Y-107843595D01*
X154578282Y-107821718D01*
X154499451Y-107761229D01*
X154456952Y-107728618D01*
X154456950Y-107728617D01*
X154452841Y-107725464D01*
X154334451Y-107676425D01*
X154311550Y-107666939D01*
X154311548Y-107666939D01*
X154306762Y-107664956D01*
X154150000Y-107644318D01*
X153993238Y-107664956D01*
X153988452Y-107666939D01*
X153988450Y-107666939D01*
X153965549Y-107676425D01*
X153847159Y-107725464D01*
X153843050Y-107728617D01*
X153843048Y-107728618D01*
X153800549Y-107761229D01*
X153721718Y-107821718D01*
X153707073Y-107840804D01*
X153635973Y-107933464D01*
X153625464Y-107947159D01*
X153564956Y-108093238D01*
X153544318Y-108250000D01*
X153564956Y-108406762D01*
X153566939Y-108411548D01*
X153566939Y-108411550D01*
X153577647Y-108437401D01*
X153625464Y-108552841D01*
X153628617Y-108556950D01*
X153628618Y-108556952D01*
X153681675Y-108626097D01*
X153721718Y-108678282D01*
X153725822Y-108681431D01*
X153843048Y-108771382D01*
X153843050Y-108771383D01*
X153847159Y-108774536D01*
X153950609Y-108817386D01*
X153988450Y-108833061D01*
X153988452Y-108833061D01*
X153993238Y-108835044D01*
X154150000Y-108855682D01*
X154306762Y-108835044D01*
X154311548Y-108833061D01*
X154311550Y-108833061D01*
X154349391Y-108817386D01*
X154452841Y-108774536D01*
X154456950Y-108771383D01*
X154456952Y-108771382D01*
X154574178Y-108681431D01*
X154578282Y-108678282D01*
X154595066Y-108656408D01*
X154640641Y-108627373D01*
X154657741Y-108625500D01*
X155051504Y-108625500D01*
X155068131Y-108627269D01*
X155075687Y-108628896D01*
X155075689Y-108628896D01*
X155082066Y-108630269D01*
X155088547Y-108629502D01*
X155088549Y-108629502D01*
X155117730Y-108626048D01*
X155127015Y-108625500D01*
X155131193Y-108625500D01*
X155151107Y-108622186D01*
X155154785Y-108621663D01*
X155206210Y-108615576D01*
X155212098Y-108612748D01*
X155213390Y-108612373D01*
X155214237Y-108612180D01*
X155214801Y-108612002D01*
X155215608Y-108611671D01*
X155216869Y-108611239D01*
X155223313Y-108610167D01*
X155268905Y-108585566D01*
X155272224Y-108583876D01*
X155309822Y-108565822D01*
X155318900Y-108561463D01*
X155323131Y-108557906D01*
X155324125Y-108556912D01*
X155327869Y-108553752D01*
X155333329Y-108550806D01*
X155338031Y-108545720D01*
X155370163Y-108510959D01*
X155372314Y-108508723D01*
X155981226Y-107899811D01*
X155994236Y-107889303D01*
X156000725Y-107885114D01*
X156000727Y-107885112D01*
X156006210Y-107881572D01*
X156028450Y-107853361D01*
X156034629Y-107846409D01*
X156037576Y-107843462D01*
X156039472Y-107840809D01*
X156039476Y-107840804D01*
X156049308Y-107827045D01*
X156051544Y-107824066D01*
X156079560Y-107788529D01*
X156079561Y-107788527D01*
X156083603Y-107783400D01*
X156085768Y-107777237D01*
X156086416Y-107776057D01*
X156086877Y-107775324D01*
X156087151Y-107774797D01*
X156087483Y-107774005D01*
X156088078Y-107772791D01*
X156091872Y-107767481D01*
X156098636Y-107744866D01*
X156106719Y-107717837D01*
X156107862Y-107714320D01*
X156125023Y-107665452D01*
X156125500Y-107659945D01*
X156125500Y-107658543D01*
X156125913Y-107653658D01*
X156127691Y-107647713D01*
X156127335Y-107638639D01*
X156125561Y-107593503D01*
X156125500Y-107590401D01*
X156125500Y-106728490D01*
X156127270Y-106711863D01*
X156128895Y-106704317D01*
X156128895Y-106704314D01*
X156130269Y-106697933D01*
X156126048Y-106662269D01*
X156125500Y-106652984D01*
X156125500Y-106648807D01*
X156122186Y-106628894D01*
X156121662Y-106625210D01*
X156116344Y-106580279D01*
X156115576Y-106573790D01*
X156112748Y-106567902D01*
X156112373Y-106566610D01*
X156112180Y-106565763D01*
X156112002Y-106565199D01*
X156111671Y-106564392D01*
X156111239Y-106563131D01*
X156110167Y-106556687D01*
X156085566Y-106511094D01*
X156083876Y-106507776D01*
X156070659Y-106480252D01*
X156061463Y-106461100D01*
X156057906Y-106456869D01*
X156056912Y-106455875D01*
X156053752Y-106452131D01*
X156050806Y-106446671D01*
X156046013Y-106442241D01*
X156046012Y-106442239D01*
X156010958Y-106409836D01*
X156008722Y-106407685D01*
X155265078Y-105664041D01*
X155242240Y-105615065D01*
X155256226Y-105562867D01*
X155300492Y-105531872D01*
X155345349Y-105533046D01*
X155434118Y-105561889D01*
X155437959Y-105562347D01*
X155625104Y-105584663D01*
X155625105Y-105584663D01*
X155628946Y-105585121D01*
X155824576Y-105570068D01*
X155853870Y-105561889D01*
X155894552Y-105550530D01*
X156013556Y-105517303D01*
X156167980Y-105439298D01*
X156185235Y-105430582D01*
X156185240Y-105430579D01*
X156188689Y-105428837D01*
X156274918Y-105361468D01*
X156340261Y-105310417D01*
X156340263Y-105310415D01*
X156343303Y-105308040D01*
X156444642Y-105190637D01*
X156468989Y-105162431D01*
X156468991Y-105162428D01*
X156471509Y-105159511D01*
X156489694Y-105127501D01*
X156566517Y-104992268D01*
X156566518Y-104992266D01*
X156568425Y-104988909D01*
X156574639Y-104970229D01*
X156608205Y-104927879D01*
X156661141Y-104917012D01*
X156708676Y-104942715D01*
X156719864Y-104959054D01*
X156801119Y-105117159D01*
X156804944Y-105124601D01*
X156926818Y-105278369D01*
X156929759Y-105280872D01*
X156929762Y-105280875D01*
X157073292Y-105403028D01*
X157076238Y-105405535D01*
X157079612Y-105407421D01*
X157079614Y-105407422D01*
X157111308Y-105425135D01*
X157247513Y-105501257D01*
X157251184Y-105502450D01*
X157251189Y-105502452D01*
X157351787Y-105535138D01*
X157434118Y-105561889D01*
X157437959Y-105562347D01*
X157625104Y-105584663D01*
X157625105Y-105584663D01*
X157628946Y-105585121D01*
X157824576Y-105570068D01*
X157853870Y-105561889D01*
X157894552Y-105550530D01*
X158013556Y-105517303D01*
X158167980Y-105439298D01*
X158185235Y-105430582D01*
X158185240Y-105430579D01*
X158188689Y-105428837D01*
X158274918Y-105361468D01*
X158340261Y-105310417D01*
X158340263Y-105310415D01*
X158343303Y-105308040D01*
X158444642Y-105190637D01*
X158468989Y-105162431D01*
X158468991Y-105162428D01*
X158471509Y-105159511D01*
X158489694Y-105127501D01*
X158566517Y-104992268D01*
X158566518Y-104992266D01*
X158568425Y-104988909D01*
X158574639Y-104970229D01*
X158608205Y-104927879D01*
X158661141Y-104917012D01*
X158708676Y-104942715D01*
X158719864Y-104959054D01*
X158801119Y-105117159D01*
X158804944Y-105124601D01*
X158926818Y-105278369D01*
X158929759Y-105280872D01*
X158929762Y-105280875D01*
X159073292Y-105403028D01*
X159076238Y-105405535D01*
X159079612Y-105407421D01*
X159079614Y-105407422D01*
X159234041Y-105493728D01*
X159269351Y-105534636D01*
X159274500Y-105562689D01*
X159274500Y-107068520D01*
X159256018Y-107119300D01*
X159205812Y-107146844D01*
X159175718Y-107150806D01*
X159068238Y-107164956D01*
X159063452Y-107166939D01*
X159063450Y-107166939D01*
X159025609Y-107182614D01*
X158922159Y-107225464D01*
X158918050Y-107228617D01*
X158918048Y-107228618D01*
X158858672Y-107274179D01*
X158796718Y-107321718D01*
X158779376Y-107344318D01*
X158705138Y-107441068D01*
X158700464Y-107447159D01*
X158639956Y-107593238D01*
X158639280Y-107598373D01*
X158635001Y-107630876D01*
X158612538Y-107676425D01*
X157147602Y-109141361D01*
X157098626Y-109164199D01*
X157091741Y-109164500D01*
X150768259Y-109164500D01*
X150717479Y-109146018D01*
X150712398Y-109141361D01*
X150654546Y-109083509D01*
X150631708Y-109034533D01*
X150632083Y-109017336D01*
X150635006Y-108995135D01*
X150635682Y-108990000D01*
X150615044Y-108833238D01*
X150554536Y-108687159D01*
X150547725Y-108678282D01*
X150465477Y-108571095D01*
X150458282Y-108561718D01*
X150413670Y-108527486D01*
X150336952Y-108468618D01*
X150336950Y-108468617D01*
X150332841Y-108465464D01*
X150229391Y-108422614D01*
X150191550Y-108406939D01*
X150191548Y-108406939D01*
X150186762Y-108404956D01*
X150030000Y-108384318D01*
X149873238Y-108404956D01*
X149868452Y-108406939D01*
X149868450Y-108406939D01*
X149830609Y-108422614D01*
X149727159Y-108465464D01*
X149723050Y-108468617D01*
X149723048Y-108468618D01*
X149646330Y-108527486D01*
X149601718Y-108561718D01*
X149594523Y-108571095D01*
X149512276Y-108678282D01*
X149505464Y-108687159D01*
X149444956Y-108833238D01*
X149424318Y-108990000D01*
X149444956Y-109146762D01*
X149446939Y-109151548D01*
X149446939Y-109151550D01*
X149452303Y-109164500D01*
X149505464Y-109292841D01*
X149508617Y-109296950D01*
X149508618Y-109296952D01*
X149570687Y-109377841D01*
X149601718Y-109418282D01*
X149612565Y-109426605D01*
X149723048Y-109511382D01*
X149723050Y-109511383D01*
X149727159Y-109514536D01*
X149830609Y-109557386D01*
X149868450Y-109573061D01*
X149868452Y-109573061D01*
X149873238Y-109575044D01*
X150030000Y-109595682D01*
X150057336Y-109592083D01*
X150110094Y-109603779D01*
X150123509Y-109614546D01*
X150236627Y-109727664D01*
X150259465Y-109776640D01*
X150245479Y-109828838D01*
X150201213Y-109859833D01*
X150180766Y-109862525D01*
X118849860Y-109862525D01*
X118834458Y-109861009D01*
X118825026Y-109859134D01*
X118825024Y-109859134D01*
X118817393Y-109857617D01*
X118809763Y-109859136D01*
X118802110Y-109859137D01*
X118789209Y-109859778D01*
X118678714Y-109849007D01*
X118663657Y-109846042D01*
X118537585Y-109808182D01*
X118523384Y-109802360D01*
X118407023Y-109740842D01*
X118394216Y-109732386D01*
X118291935Y-109649523D01*
X118281005Y-109638749D01*
X118196682Y-109537681D01*
X118188041Y-109524997D01*
X118124847Y-109409526D01*
X118118822Y-109395410D01*
X118113784Y-109379470D01*
X118079152Y-109269909D01*
X118075969Y-109254897D01*
X118063613Y-109144633D01*
X118064079Y-109131425D01*
X118063973Y-109124002D01*
X118065382Y-109116349D01*
X118062246Y-109101682D01*
X118060500Y-109085164D01*
X118060500Y-108501504D01*
X118078982Y-108450724D01*
X118125782Y-108423704D01*
X118179000Y-108433088D01*
X118187592Y-108438829D01*
X118243048Y-108481382D01*
X118243050Y-108481383D01*
X118247159Y-108484536D01*
X118310950Y-108510959D01*
X118388450Y-108543061D01*
X118388452Y-108543061D01*
X118393238Y-108545044D01*
X118483689Y-108556952D01*
X118532834Y-108563422D01*
X118550000Y-108565682D01*
X118567167Y-108563422D01*
X118616311Y-108556952D01*
X118706762Y-108545044D01*
X118711548Y-108543061D01*
X118711550Y-108543061D01*
X118789050Y-108510959D01*
X118852841Y-108484536D01*
X118856950Y-108481383D01*
X118856952Y-108481382D01*
X118960892Y-108401626D01*
X118978282Y-108388282D01*
X118999855Y-108360167D01*
X119071382Y-108266952D01*
X119071383Y-108266950D01*
X119074536Y-108262841D01*
X119130208Y-108128437D01*
X119133061Y-108121550D01*
X119133061Y-108121548D01*
X119135044Y-108116762D01*
X119155682Y-107960000D01*
X119152083Y-107932664D01*
X119163779Y-107879906D01*
X119174546Y-107866491D01*
X119454398Y-107586639D01*
X119503374Y-107563801D01*
X119510259Y-107563500D01*
X123379741Y-107563500D01*
X123430521Y-107581982D01*
X123435602Y-107586639D01*
X123705454Y-107856491D01*
X123728292Y-107905467D01*
X123727917Y-107922663D01*
X123724318Y-107950000D01*
X123724994Y-107955135D01*
X123726311Y-107965135D01*
X123744956Y-108106762D01*
X123746939Y-108111548D01*
X123746939Y-108111550D01*
X123753934Y-108128437D01*
X123805464Y-108252841D01*
X123808617Y-108256950D01*
X123808618Y-108256952D01*
X123848173Y-108308501D01*
X123901718Y-108378282D01*
X123905822Y-108381431D01*
X124023048Y-108471382D01*
X124023050Y-108471383D01*
X124027159Y-108474536D01*
X124109694Y-108508723D01*
X124168450Y-108533061D01*
X124168452Y-108533061D01*
X124173238Y-108535044D01*
X124249196Y-108545044D01*
X124320536Y-108554436D01*
X124330000Y-108555682D01*
X124339465Y-108554436D01*
X124410804Y-108545044D01*
X124486762Y-108535044D01*
X124491548Y-108533061D01*
X124491550Y-108533061D01*
X124550306Y-108508723D01*
X124632841Y-108474536D01*
X124636950Y-108471383D01*
X124636952Y-108471382D01*
X124754178Y-108381431D01*
X124758282Y-108378282D01*
X124811827Y-108308501D01*
X124851382Y-108256952D01*
X124851383Y-108256950D01*
X124854536Y-108252841D01*
X124906066Y-108128437D01*
X124913061Y-108111550D01*
X124913061Y-108111548D01*
X124915044Y-108106762D01*
X124933689Y-107965135D01*
X124935006Y-107955135D01*
X124935682Y-107950000D01*
X124915044Y-107793238D01*
X124907928Y-107776057D01*
X124886971Y-107725464D01*
X124854536Y-107647159D01*
X124849955Y-107641188D01*
X124761431Y-107525822D01*
X124758282Y-107521718D01*
X124726617Y-107497421D01*
X124636952Y-107428618D01*
X124636950Y-107428617D01*
X124632841Y-107425464D01*
X124516732Y-107377370D01*
X124491550Y-107366939D01*
X124491548Y-107366939D01*
X124486762Y-107364956D01*
X124330000Y-107344318D01*
X124302664Y-107347917D01*
X124249906Y-107336221D01*
X124236491Y-107325454D01*
X123867810Y-106956773D01*
X123857303Y-106943764D01*
X123849572Y-106931790D01*
X123821357Y-106909547D01*
X123814405Y-106903368D01*
X123811462Y-106900425D01*
X123795038Y-106888688D01*
X123792090Y-106886475D01*
X123790329Y-106885087D01*
X123751400Y-106854397D01*
X123745243Y-106852235D01*
X123744059Y-106851584D01*
X123743337Y-106851130D01*
X123742799Y-106850850D01*
X123741998Y-106850515D01*
X123740795Y-106849926D01*
X123735481Y-106846128D01*
X123685842Y-106831283D01*
X123682323Y-106830139D01*
X123638145Y-106814625D01*
X123633452Y-106812977D01*
X123627945Y-106812500D01*
X123626534Y-106812500D01*
X123621654Y-106812087D01*
X123615713Y-106810310D01*
X123609192Y-106810566D01*
X123609190Y-106810566D01*
X123561528Y-106812439D01*
X123558426Y-106812500D01*
X119370496Y-106812500D01*
X119353869Y-106810731D01*
X119346313Y-106809104D01*
X119346311Y-106809104D01*
X119339934Y-106807731D01*
X119333453Y-106808498D01*
X119333451Y-106808498D01*
X119304270Y-106811952D01*
X119294985Y-106812500D01*
X119290807Y-106812500D01*
X119287601Y-106813034D01*
X119287596Y-106813034D01*
X119270900Y-106815813D01*
X119267217Y-106816337D01*
X119222277Y-106821656D01*
X119222275Y-106821657D01*
X119215791Y-106822424D01*
X119209905Y-106825250D01*
X119208605Y-106825628D01*
X119207761Y-106825820D01*
X119207211Y-106825994D01*
X119206403Y-106826325D01*
X119205133Y-106826760D01*
X119198687Y-106827833D01*
X119157603Y-106850000D01*
X119153105Y-106852427D01*
X119149791Y-106854115D01*
X119107584Y-106874383D01*
X119107579Y-106874386D01*
X119103100Y-106876537D01*
X119098869Y-106880094D01*
X119097875Y-106881088D01*
X119094131Y-106884248D01*
X119088671Y-106887194D01*
X119084241Y-106891987D01*
X119084239Y-106891988D01*
X119051836Y-106927042D01*
X119049685Y-106929278D01*
X118643509Y-107335454D01*
X118594533Y-107358292D01*
X118577337Y-107357917D01*
X118550000Y-107354318D01*
X118393238Y-107374956D01*
X118388452Y-107376939D01*
X118388450Y-107376939D01*
X118371737Y-107383862D01*
X118247159Y-107435464D01*
X118243050Y-107438617D01*
X118243048Y-107438618D01*
X118187592Y-107481171D01*
X118136054Y-107497421D01*
X118086128Y-107476741D01*
X118061176Y-107428807D01*
X118060500Y-107418496D01*
X118060500Y-105969177D01*
X118078982Y-105918397D01*
X118125782Y-105891377D01*
X118179000Y-105900761D01*
X118187592Y-105906502D01*
X118233048Y-105941382D01*
X118233050Y-105941383D01*
X118237159Y-105944536D01*
X118312550Y-105975764D01*
X118378450Y-106003061D01*
X118378452Y-106003061D01*
X118383238Y-106005044D01*
X118540000Y-106025682D01*
X118567336Y-106022083D01*
X118620094Y-106033779D01*
X118633509Y-106044546D01*
X119040190Y-106451227D01*
X119050695Y-106464233D01*
X119058428Y-106476210D01*
X119079787Y-106493048D01*
X119086643Y-106498453D01*
X119093595Y-106504632D01*
X119096538Y-106507575D01*
X119112962Y-106519312D01*
X119115907Y-106521523D01*
X119156600Y-106553603D01*
X119162757Y-106555765D01*
X119163941Y-106556416D01*
X119164661Y-106556869D01*
X119165207Y-106557152D01*
X119166001Y-106557485D01*
X119167207Y-106558076D01*
X119172519Y-106561872D01*
X119178772Y-106563742D01*
X119178774Y-106563743D01*
X119222163Y-106576719D01*
X119225680Y-106577862D01*
X119274548Y-106595023D01*
X119280055Y-106595500D01*
X119281457Y-106595500D01*
X119286342Y-106595913D01*
X119292287Y-106597691D01*
X119298810Y-106597435D01*
X119298812Y-106597435D01*
X119346497Y-106595561D01*
X119349599Y-106595500D01*
X126206741Y-106595500D01*
X126257521Y-106613982D01*
X126262602Y-106618639D01*
X127875190Y-108231227D01*
X127885695Y-108244233D01*
X127893428Y-108256210D01*
X127912674Y-108271382D01*
X127921643Y-108278453D01*
X127928595Y-108284632D01*
X127931538Y-108287575D01*
X127947962Y-108299312D01*
X127950907Y-108301523D01*
X127991600Y-108333603D01*
X127997757Y-108335765D01*
X127998941Y-108336416D01*
X127999661Y-108336869D01*
X128000207Y-108337152D01*
X128001001Y-108337485D01*
X128002207Y-108338076D01*
X128007519Y-108341872D01*
X128053697Y-108355682D01*
X128057144Y-108356713D01*
X128060685Y-108357864D01*
X128101469Y-108372186D01*
X128109548Y-108375023D01*
X128115055Y-108375500D01*
X128116466Y-108375500D01*
X128121345Y-108375913D01*
X128127286Y-108377690D01*
X128133807Y-108377434D01*
X128133809Y-108377434D01*
X128181471Y-108375561D01*
X128184573Y-108375500D01*
X133208614Y-108375500D01*
X133259394Y-108393982D01*
X133286414Y-108440782D01*
X133277030Y-108494000D01*
X133238846Y-108527486D01*
X133147159Y-108565464D01*
X133143050Y-108568617D01*
X133143048Y-108568618D01*
X133063703Y-108629502D01*
X133021718Y-108661718D01*
X133004934Y-108683592D01*
X132959359Y-108712627D01*
X132942259Y-108714500D01*
X122358259Y-108714500D01*
X122307479Y-108696018D01*
X122302398Y-108691361D01*
X121837810Y-108226773D01*
X121827303Y-108213764D01*
X121819572Y-108201790D01*
X121791357Y-108179547D01*
X121784405Y-108173368D01*
X121781462Y-108170425D01*
X121765038Y-108158688D01*
X121762090Y-108156475D01*
X121755206Y-108151048D01*
X121721400Y-108124397D01*
X121715243Y-108122235D01*
X121714059Y-108121584D01*
X121713337Y-108121130D01*
X121712799Y-108120850D01*
X121711998Y-108120515D01*
X121710795Y-108119925D01*
X121705481Y-108116128D01*
X121663911Y-108103696D01*
X121623872Y-108076100D01*
X121591431Y-108033822D01*
X121588282Y-108029718D01*
X121504116Y-107965135D01*
X121466952Y-107936618D01*
X121466950Y-107936617D01*
X121462841Y-107933464D01*
X121325183Y-107876444D01*
X121321550Y-107874939D01*
X121321548Y-107874939D01*
X121316762Y-107872956D01*
X121188104Y-107856018D01*
X121165135Y-107852994D01*
X121160000Y-107852318D01*
X121154865Y-107852994D01*
X121131896Y-107856018D01*
X121003238Y-107872956D01*
X120998452Y-107874939D01*
X120998450Y-107874939D01*
X120994817Y-107876444D01*
X120857159Y-107933464D01*
X120853050Y-107936617D01*
X120853048Y-107936618D01*
X120815884Y-107965135D01*
X120731718Y-108029718D01*
X120728569Y-108033822D01*
X120677210Y-108100755D01*
X120635464Y-108155159D01*
X120596986Y-108248052D01*
X120577121Y-108296012D01*
X120574956Y-108301238D01*
X120554318Y-108458000D01*
X120574956Y-108614762D01*
X120576939Y-108619548D01*
X120576939Y-108619550D01*
X120581379Y-108630269D01*
X120635464Y-108760841D01*
X120638617Y-108764950D01*
X120638618Y-108764952D01*
X120694957Y-108838374D01*
X120731718Y-108886282D01*
X120735822Y-108889431D01*
X120853048Y-108979382D01*
X120853050Y-108979383D01*
X120857159Y-108982536D01*
X120960609Y-109025386D01*
X120998450Y-109041061D01*
X120998452Y-109041061D01*
X121003238Y-109043044D01*
X121160000Y-109063682D01*
X121316762Y-109043044D01*
X121462624Y-108982626D01*
X121516610Y-108980269D01*
X121548715Y-108999752D01*
X121870190Y-109321227D01*
X121880695Y-109334233D01*
X121888428Y-109346210D01*
X121916113Y-109368035D01*
X121916643Y-109368453D01*
X121923595Y-109374632D01*
X121926538Y-109377575D01*
X121942962Y-109389312D01*
X121945907Y-109391523D01*
X121986600Y-109423603D01*
X121992757Y-109425765D01*
X121993941Y-109426416D01*
X121994661Y-109426869D01*
X121995207Y-109427152D01*
X121996001Y-109427485D01*
X121997207Y-109428076D01*
X122002519Y-109431872D01*
X122008772Y-109433742D01*
X122008774Y-109433743D01*
X122052163Y-109446719D01*
X122055680Y-109447862D01*
X122104548Y-109465023D01*
X122110055Y-109465500D01*
X122111457Y-109465500D01*
X122116342Y-109465913D01*
X122122287Y-109467691D01*
X122128809Y-109467435D01*
X122128812Y-109467435D01*
X122176486Y-109465561D01*
X122179588Y-109465500D01*
X132942259Y-109465500D01*
X132993039Y-109483982D01*
X133004931Y-109496405D01*
X133021718Y-109518282D01*
X133025822Y-109521431D01*
X133143048Y-109611382D01*
X133143050Y-109611383D01*
X133147159Y-109614536D01*
X133231625Y-109649523D01*
X133288450Y-109673061D01*
X133288452Y-109673061D01*
X133293238Y-109675044D01*
X133450000Y-109695682D01*
X133606762Y-109675044D01*
X133611548Y-109673061D01*
X133611550Y-109673061D01*
X133668375Y-109649523D01*
X133752841Y-109614536D01*
X133756950Y-109611383D01*
X133756952Y-109611382D01*
X133874178Y-109521431D01*
X133878282Y-109518282D01*
X133917298Y-109467435D01*
X133971382Y-109396952D01*
X133971383Y-109396950D01*
X133974536Y-109392841D01*
X134030010Y-109258915D01*
X134033061Y-109251550D01*
X134033061Y-109251548D01*
X134035044Y-109246762D01*
X134055682Y-109090000D01*
X134035044Y-108933238D01*
X133974536Y-108787159D01*
X133963027Y-108772159D01*
X133881431Y-108665822D01*
X133881430Y-108665821D01*
X133878282Y-108661718D01*
X133836297Y-108629502D01*
X133756952Y-108568618D01*
X133756950Y-108568617D01*
X133752841Y-108565464D01*
X133661154Y-108527486D01*
X133621312Y-108490978D01*
X133614259Y-108437401D01*
X133643294Y-108391825D01*
X133691386Y-108375500D01*
X148651504Y-108375500D01*
X148668131Y-108377269D01*
X148675687Y-108378896D01*
X148675689Y-108378896D01*
X148682066Y-108380269D01*
X148688547Y-108379502D01*
X148688549Y-108379502D01*
X148717730Y-108376048D01*
X148727015Y-108375500D01*
X148731193Y-108375500D01*
X148751107Y-108372186D01*
X148754785Y-108371663D01*
X148806210Y-108365576D01*
X148812098Y-108362748D01*
X148813390Y-108362373D01*
X148814237Y-108362180D01*
X148814801Y-108362002D01*
X148815608Y-108361671D01*
X148816869Y-108361239D01*
X148823313Y-108360167D01*
X148868905Y-108335566D01*
X148872224Y-108333876D01*
X148881206Y-108329563D01*
X148918900Y-108311463D01*
X148923131Y-108307906D01*
X148924125Y-108306912D01*
X148927869Y-108303752D01*
X148933329Y-108300806D01*
X148970164Y-108260958D01*
X148972315Y-108258722D01*
X149592398Y-107638639D01*
X149641374Y-107615801D01*
X149648259Y-107615500D01*
X153531504Y-107615500D01*
X153548131Y-107617269D01*
X153555687Y-107618896D01*
X153555689Y-107618896D01*
X153562066Y-107620269D01*
X153568547Y-107619502D01*
X153568549Y-107619502D01*
X153597730Y-107616048D01*
X153607015Y-107615500D01*
X153611193Y-107615500D01*
X153631107Y-107612186D01*
X153634785Y-107611663D01*
X153686210Y-107605576D01*
X153692098Y-107602748D01*
X153693390Y-107602373D01*
X153694237Y-107602180D01*
X153694801Y-107602002D01*
X153695608Y-107601671D01*
X153696869Y-107601239D01*
X153703313Y-107600167D01*
X153748905Y-107575566D01*
X153752224Y-107573876D01*
X153769034Y-107565804D01*
X153798900Y-107551463D01*
X153803131Y-107547906D01*
X153804125Y-107546912D01*
X153807869Y-107543752D01*
X153813329Y-107540806D01*
X153838544Y-107513529D01*
X153850163Y-107500959D01*
X153852314Y-107498723D01*
X154046491Y-107304546D01*
X154095467Y-107281708D01*
X154112663Y-107282083D01*
X154140000Y-107285682D01*
X154296762Y-107265044D01*
X154301548Y-107263061D01*
X154301550Y-107263061D01*
X154339391Y-107247386D01*
X154442841Y-107204536D01*
X154446950Y-107201383D01*
X154446952Y-107201382D01*
X154564178Y-107111431D01*
X154568282Y-107108282D01*
X154664536Y-106982841D01*
X154711965Y-106868338D01*
X154723061Y-106841550D01*
X154723061Y-106841548D01*
X154725044Y-106836762D01*
X154745682Y-106680000D01*
X154725044Y-106523238D01*
X154718640Y-106507776D01*
X154701162Y-106465582D01*
X154664536Y-106377159D01*
X154655780Y-106365747D01*
X154568579Y-106252105D01*
X154568474Y-106251772D01*
X154567895Y-106251421D01*
X154446952Y-106158618D01*
X154446950Y-106158617D01*
X154442841Y-106155464D01*
X154339391Y-106112614D01*
X154301550Y-106096939D01*
X154301548Y-106096939D01*
X154296762Y-106094956D01*
X154140000Y-106074318D01*
X153983238Y-106094956D01*
X153978452Y-106096939D01*
X153978450Y-106096939D01*
X153940609Y-106112614D01*
X153837159Y-106155464D01*
X153833050Y-106158617D01*
X153833048Y-106158618D01*
X153753943Y-106219318D01*
X153711718Y-106251718D01*
X153708569Y-106255822D01*
X153624221Y-106365747D01*
X153615464Y-106377159D01*
X153578838Y-106465582D01*
X153561361Y-106507776D01*
X153554956Y-106523238D01*
X153534318Y-106680000D01*
X153537520Y-106704317D01*
X153537917Y-106707336D01*
X153526221Y-106760094D01*
X153515454Y-106773509D01*
X153447602Y-106841361D01*
X153398626Y-106864199D01*
X153391741Y-106864500D01*
X149508490Y-106864500D01*
X149491863Y-106862730D01*
X149484317Y-106861105D01*
X149484314Y-106861105D01*
X149477933Y-106859731D01*
X149443231Y-106863838D01*
X149442269Y-106863952D01*
X149432984Y-106864500D01*
X149428807Y-106864500D01*
X149425588Y-106865036D01*
X149425585Y-106865036D01*
X149408894Y-106867814D01*
X149405210Y-106868338D01*
X149363552Y-106873269D01*
X149353790Y-106874424D01*
X149347902Y-106877252D01*
X149346610Y-106877627D01*
X149345763Y-106877820D01*
X149345199Y-106877998D01*
X149344392Y-106878329D01*
X149343131Y-106878761D01*
X149336687Y-106879833D01*
X149302036Y-106898530D01*
X149291094Y-106904434D01*
X149287775Y-106906124D01*
X149241100Y-106928537D01*
X149236869Y-106932094D01*
X149235875Y-106933088D01*
X149232131Y-106936248D01*
X149226671Y-106939194D01*
X149222241Y-106943987D01*
X149222239Y-106943988D01*
X149189836Y-106979042D01*
X149187685Y-106981278D01*
X148567602Y-107601361D01*
X148518626Y-107624199D01*
X148511741Y-107624500D01*
X128363259Y-107624500D01*
X128312479Y-107606018D01*
X128307398Y-107601361D01*
X126694810Y-105988773D01*
X126684303Y-105975764D01*
X126676572Y-105963790D01*
X126648357Y-105941547D01*
X126641405Y-105935368D01*
X126638462Y-105932425D01*
X126622038Y-105920688D01*
X126619090Y-105918475D01*
X126615972Y-105916017D01*
X126578400Y-105886397D01*
X126572243Y-105884235D01*
X126571059Y-105883584D01*
X126570337Y-105883130D01*
X126569799Y-105882850D01*
X126568998Y-105882515D01*
X126567795Y-105881926D01*
X126562481Y-105878128D01*
X126512842Y-105863283D01*
X126509323Y-105862139D01*
X126465145Y-105846625D01*
X126460452Y-105844977D01*
X126454945Y-105844500D01*
X126453534Y-105844500D01*
X126448654Y-105844087D01*
X126442713Y-105842310D01*
X126436192Y-105842566D01*
X126436190Y-105842566D01*
X126388528Y-105844439D01*
X126385426Y-105844500D01*
X119528259Y-105844500D01*
X119477479Y-105826018D01*
X119472398Y-105821361D01*
X119164546Y-105513509D01*
X119141708Y-105464533D01*
X119142083Y-105447336D01*
X119145006Y-105425135D01*
X119145682Y-105420000D01*
X119125044Y-105263238D01*
X119064536Y-105117159D01*
X118968282Y-104991718D01*
X118925713Y-104959054D01*
X118846952Y-104898618D01*
X118846950Y-104898617D01*
X118842841Y-104895464D01*
X118739391Y-104852614D01*
X118701550Y-104836939D01*
X118701548Y-104836939D01*
X118696762Y-104834956D01*
X118557843Y-104816667D01*
X118545135Y-104814994D01*
X118540000Y-104814318D01*
X118534865Y-104814994D01*
X118522157Y-104816667D01*
X118383238Y-104834956D01*
X118378452Y-104836939D01*
X118378450Y-104836939D01*
X118340609Y-104852614D01*
X118237159Y-104895464D01*
X118233050Y-104898617D01*
X118233048Y-104898618D01*
X118187592Y-104933498D01*
X118136054Y-104949748D01*
X118086128Y-104929068D01*
X118061176Y-104881134D01*
X118060500Y-104870823D01*
X118060500Y-104565963D01*
X119314757Y-104565963D01*
X119331175Y-104761483D01*
X119332239Y-104765194D01*
X119332240Y-104765199D01*
X119365485Y-104881134D01*
X119385258Y-104950091D01*
X119387022Y-104953523D01*
X119387023Y-104953526D01*
X119471119Y-105117159D01*
X119474944Y-105124601D01*
X119596818Y-105278369D01*
X119599759Y-105280872D01*
X119599762Y-105280875D01*
X119743292Y-105403028D01*
X119746238Y-105405535D01*
X119749612Y-105407421D01*
X119749614Y-105407422D01*
X119781308Y-105425135D01*
X119917513Y-105501257D01*
X119921184Y-105502450D01*
X119921189Y-105502452D01*
X120021787Y-105535138D01*
X120104118Y-105561889D01*
X120107959Y-105562347D01*
X120295104Y-105584663D01*
X120295105Y-105584663D01*
X120298946Y-105585121D01*
X120494576Y-105570068D01*
X120523870Y-105561889D01*
X120564552Y-105550530D01*
X120683556Y-105517303D01*
X120837980Y-105439298D01*
X120855235Y-105430582D01*
X120855240Y-105430579D01*
X120858689Y-105428837D01*
X120874162Y-105416748D01*
X121771587Y-105416748D01*
X121772094Y-105418641D01*
X121774332Y-105420663D01*
X121914347Y-105498915D01*
X121921381Y-105501989D01*
X122100552Y-105560204D01*
X122108066Y-105561856D01*
X122295114Y-105584161D01*
X122302814Y-105584322D01*
X122490637Y-105569869D01*
X122498206Y-105568535D01*
X122679659Y-105517872D01*
X122686820Y-105515094D01*
X122854967Y-105430158D01*
X122861468Y-105426033D01*
X122862687Y-105425080D01*
X122868704Y-105415451D01*
X122868066Y-105410908D01*
X122329851Y-104872694D01*
X122319557Y-104867894D01*
X122313263Y-104869580D01*
X121776387Y-105406455D01*
X121771587Y-105416748D01*
X120874162Y-105416748D01*
X120944918Y-105361468D01*
X121010261Y-105310417D01*
X121010263Y-105310415D01*
X121013303Y-105308040D01*
X121114642Y-105190637D01*
X121138989Y-105162431D01*
X121138991Y-105162428D01*
X121141509Y-105159511D01*
X121159694Y-105127501D01*
X121236517Y-104992268D01*
X121236518Y-104992266D01*
X121238425Y-104988909D01*
X121244860Y-104969563D01*
X121278427Y-104927215D01*
X121331363Y-104916350D01*
X121378898Y-104942053D01*
X121390085Y-104958391D01*
X121473601Y-105120896D01*
X121475466Y-105123790D01*
X121484106Y-105129105D01*
X121488737Y-105128421D01*
X122027306Y-104589851D01*
X122031693Y-104580443D01*
X122607894Y-104580443D01*
X122609580Y-104586737D01*
X123146089Y-105123247D01*
X123156382Y-105128047D01*
X123158419Y-105127501D01*
X123160283Y-105125452D01*
X123236057Y-104992066D01*
X123239183Y-104985044D01*
X123244318Y-104969607D01*
X123277884Y-104927256D01*
X123330819Y-104916389D01*
X123378355Y-104942091D01*
X123389544Y-104958431D01*
X123471119Y-105117159D01*
X123474944Y-105124601D01*
X123596818Y-105278369D01*
X123599759Y-105280872D01*
X123599762Y-105280875D01*
X123743292Y-105403028D01*
X123746238Y-105405535D01*
X123749612Y-105407421D01*
X123749614Y-105407422D01*
X123781308Y-105425135D01*
X123917513Y-105501257D01*
X123921184Y-105502450D01*
X123921189Y-105502452D01*
X124021787Y-105535138D01*
X124104118Y-105561889D01*
X124107959Y-105562347D01*
X124295104Y-105584663D01*
X124295105Y-105584663D01*
X124298946Y-105585121D01*
X124494576Y-105570068D01*
X124523870Y-105561889D01*
X124564552Y-105550530D01*
X124683556Y-105517303D01*
X124837980Y-105439298D01*
X124855235Y-105430582D01*
X124855240Y-105430579D01*
X124858689Y-105428837D01*
X124944918Y-105361468D01*
X125010261Y-105310417D01*
X125010263Y-105310415D01*
X125013303Y-105308040D01*
X125114642Y-105190637D01*
X125138989Y-105162431D01*
X125138991Y-105162428D01*
X125141509Y-105159511D01*
X125159694Y-105127501D01*
X125236517Y-104992268D01*
X125236518Y-104992266D01*
X125238425Y-104988909D01*
X125244639Y-104970229D01*
X125278205Y-104927879D01*
X125331141Y-104917012D01*
X125378676Y-104942715D01*
X125389864Y-104959054D01*
X125471119Y-105117159D01*
X125474944Y-105124601D01*
X125596818Y-105278369D01*
X125599759Y-105280872D01*
X125599762Y-105280875D01*
X125743292Y-105403028D01*
X125746238Y-105405535D01*
X125749612Y-105407421D01*
X125749614Y-105407422D01*
X125781308Y-105425135D01*
X125917513Y-105501257D01*
X125921184Y-105502450D01*
X125921189Y-105502452D01*
X126021787Y-105535138D01*
X126104118Y-105561889D01*
X126107959Y-105562347D01*
X126295104Y-105584663D01*
X126295105Y-105584663D01*
X126298946Y-105585121D01*
X126494576Y-105570068D01*
X126523870Y-105561889D01*
X126564552Y-105550530D01*
X126683556Y-105517303D01*
X126837980Y-105439298D01*
X126855235Y-105430582D01*
X126855240Y-105430579D01*
X126858689Y-105428837D01*
X126944918Y-105361468D01*
X127010261Y-105310417D01*
X127010263Y-105310415D01*
X127013303Y-105308040D01*
X127114642Y-105190637D01*
X127138989Y-105162431D01*
X127138991Y-105162428D01*
X127141509Y-105159511D01*
X127159694Y-105127501D01*
X127236517Y-104992268D01*
X127236518Y-104992266D01*
X127238425Y-104988909D01*
X127244639Y-104970229D01*
X127278205Y-104927879D01*
X127331141Y-104917012D01*
X127378676Y-104942715D01*
X127389864Y-104959054D01*
X127471119Y-105117159D01*
X127474944Y-105124601D01*
X127596818Y-105278369D01*
X127599759Y-105280872D01*
X127599762Y-105280875D01*
X127743292Y-105403028D01*
X127746238Y-105405535D01*
X127749612Y-105407421D01*
X127749614Y-105407422D01*
X127781308Y-105425135D01*
X127917513Y-105501257D01*
X127921184Y-105502450D01*
X127921189Y-105502452D01*
X128021787Y-105535138D01*
X128104118Y-105561889D01*
X128107959Y-105562347D01*
X128295104Y-105584663D01*
X128295105Y-105584663D01*
X128298946Y-105585121D01*
X128494576Y-105570068D01*
X128523870Y-105561889D01*
X128564552Y-105550530D01*
X128683556Y-105517303D01*
X128837980Y-105439298D01*
X128855235Y-105430582D01*
X128855240Y-105430579D01*
X128858689Y-105428837D01*
X128944918Y-105361468D01*
X129010261Y-105310417D01*
X129010263Y-105310415D01*
X129013303Y-105308040D01*
X129114642Y-105190637D01*
X129138989Y-105162431D01*
X129138991Y-105162428D01*
X129141509Y-105159511D01*
X129159694Y-105127501D01*
X129236517Y-104992268D01*
X129236518Y-104992266D01*
X129238425Y-104988909D01*
X129244639Y-104970229D01*
X129278205Y-104927879D01*
X129331141Y-104917012D01*
X129378676Y-104942715D01*
X129389864Y-104959054D01*
X129471119Y-105117159D01*
X129474944Y-105124601D01*
X129596818Y-105278369D01*
X129599759Y-105280872D01*
X129599762Y-105280875D01*
X129743292Y-105403028D01*
X129746238Y-105405535D01*
X129749612Y-105407421D01*
X129749614Y-105407422D01*
X129781308Y-105425135D01*
X129917513Y-105501257D01*
X129921184Y-105502450D01*
X129921189Y-105502452D01*
X130021787Y-105535138D01*
X130104118Y-105561889D01*
X130107959Y-105562347D01*
X130295104Y-105584663D01*
X130295105Y-105584663D01*
X130298946Y-105585121D01*
X130494576Y-105570068D01*
X130523870Y-105561889D01*
X130564552Y-105550530D01*
X130683556Y-105517303D01*
X130837980Y-105439298D01*
X130855235Y-105430582D01*
X130855240Y-105430579D01*
X130858689Y-105428837D01*
X130944918Y-105361468D01*
X131010261Y-105310417D01*
X131010263Y-105310415D01*
X131013303Y-105308040D01*
X131114642Y-105190637D01*
X131138989Y-105162431D01*
X131138991Y-105162428D01*
X131141509Y-105159511D01*
X131159694Y-105127501D01*
X131236517Y-104992268D01*
X131236518Y-104992266D01*
X131238425Y-104988909D01*
X131244860Y-104969564D01*
X131299137Y-104806404D01*
X131299138Y-104806399D01*
X131300358Y-104802732D01*
X131303885Y-104774817D01*
X131306882Y-104751087D01*
X131324949Y-104608071D01*
X131325341Y-104580000D01*
X131306194Y-104384728D01*
X131249484Y-104196894D01*
X131247673Y-104193489D01*
X131247671Y-104193483D01*
X131159182Y-104027061D01*
X131157370Y-104023653D01*
X131147880Y-104012016D01*
X131035802Y-103874595D01*
X131033361Y-103871602D01*
X130882180Y-103746535D01*
X130872288Y-103741186D01*
X130807716Y-103706273D01*
X130709585Y-103653213D01*
X130522152Y-103595193D01*
X130327019Y-103574683D01*
X130323173Y-103575033D01*
X130323172Y-103575033D01*
X130272519Y-103579643D01*
X130131618Y-103592466D01*
X130127911Y-103593557D01*
X129947102Y-103646772D01*
X129947099Y-103646773D01*
X129943393Y-103647864D01*
X129939966Y-103649656D01*
X129939965Y-103649656D01*
X129772937Y-103736976D01*
X129772934Y-103736978D01*
X129769512Y-103738767D01*
X129766505Y-103741185D01*
X129766503Y-103741186D01*
X129757593Y-103748350D01*
X129616600Y-103861711D01*
X129490480Y-104012016D01*
X129488618Y-104015404D01*
X129488616Y-104015406D01*
X129397818Y-104180567D01*
X129395956Y-104183954D01*
X129394787Y-104187639D01*
X129393266Y-104191188D01*
X129391717Y-104190524D01*
X129362394Y-104228577D01*
X129309612Y-104240165D01*
X129261730Y-104215114D01*
X129250000Y-104196620D01*
X129249484Y-104196894D01*
X129159182Y-104027061D01*
X129157370Y-104023653D01*
X129147880Y-104012016D01*
X129035802Y-103874595D01*
X129033361Y-103871602D01*
X128882180Y-103746535D01*
X128872288Y-103741186D01*
X128807716Y-103706273D01*
X128709585Y-103653213D01*
X128522152Y-103595193D01*
X128327019Y-103574683D01*
X128323173Y-103575033D01*
X128323172Y-103575033D01*
X128272519Y-103579643D01*
X128131618Y-103592466D01*
X128127911Y-103593557D01*
X127947102Y-103646772D01*
X127947099Y-103646773D01*
X127943393Y-103647864D01*
X127939966Y-103649656D01*
X127939965Y-103649656D01*
X127772937Y-103736976D01*
X127772934Y-103736978D01*
X127769512Y-103738767D01*
X127766505Y-103741185D01*
X127766503Y-103741186D01*
X127757593Y-103748350D01*
X127616600Y-103861711D01*
X127490480Y-104012016D01*
X127488618Y-104015404D01*
X127488616Y-104015406D01*
X127397818Y-104180567D01*
X127395956Y-104183954D01*
X127394787Y-104187639D01*
X127393266Y-104191188D01*
X127391717Y-104190524D01*
X127362394Y-104228577D01*
X127309612Y-104240165D01*
X127261730Y-104215114D01*
X127250000Y-104196620D01*
X127249484Y-104196894D01*
X127159182Y-104027061D01*
X127157370Y-104023653D01*
X127147880Y-104012016D01*
X127035802Y-103874595D01*
X127033361Y-103871602D01*
X126882180Y-103746535D01*
X126872288Y-103741186D01*
X126807716Y-103706273D01*
X126709585Y-103653213D01*
X126522152Y-103595193D01*
X126327019Y-103574683D01*
X126323173Y-103575033D01*
X126323172Y-103575033D01*
X126272519Y-103579643D01*
X126131618Y-103592466D01*
X126127911Y-103593557D01*
X125947102Y-103646772D01*
X125947099Y-103646773D01*
X125943393Y-103647864D01*
X125939966Y-103649656D01*
X125939965Y-103649656D01*
X125772937Y-103736976D01*
X125772934Y-103736978D01*
X125769512Y-103738767D01*
X125766505Y-103741185D01*
X125766503Y-103741186D01*
X125757593Y-103748350D01*
X125616600Y-103861711D01*
X125490480Y-104012016D01*
X125488618Y-104015404D01*
X125488616Y-104015406D01*
X125397818Y-104180567D01*
X125395956Y-104183954D01*
X125394787Y-104187639D01*
X125393266Y-104191188D01*
X125391717Y-104190524D01*
X125362394Y-104228577D01*
X125309612Y-104240165D01*
X125261730Y-104215114D01*
X125250000Y-104196620D01*
X125249484Y-104196894D01*
X125159182Y-104027061D01*
X125157370Y-104023653D01*
X125147880Y-104012016D01*
X125035802Y-103874595D01*
X125033361Y-103871602D01*
X124882180Y-103746535D01*
X124872288Y-103741186D01*
X124807716Y-103706273D01*
X124709585Y-103653213D01*
X124522152Y-103595193D01*
X124327019Y-103574683D01*
X124323173Y-103575033D01*
X124323172Y-103575033D01*
X124272519Y-103579643D01*
X124131618Y-103592466D01*
X124127911Y-103593557D01*
X123947102Y-103646772D01*
X123947099Y-103646773D01*
X123943393Y-103647864D01*
X123939966Y-103649656D01*
X123939965Y-103649656D01*
X123772937Y-103736976D01*
X123772934Y-103736978D01*
X123769512Y-103738767D01*
X123766505Y-103741185D01*
X123766503Y-103741186D01*
X123757593Y-103748350D01*
X123616600Y-103861711D01*
X123490480Y-104012016D01*
X123488618Y-104015404D01*
X123488616Y-104015406D01*
X123397818Y-104180567D01*
X123395956Y-104183954D01*
X123394787Y-104187639D01*
X123393266Y-104191188D01*
X123391967Y-104190631D01*
X123362172Y-104229313D01*
X123309392Y-104240912D01*
X123261505Y-104215871D01*
X123249443Y-104196861D01*
X123249020Y-104197086D01*
X123164172Y-104037510D01*
X123155733Y-104029911D01*
X123154226Y-104029858D01*
X123151018Y-104031824D01*
X122612694Y-104570149D01*
X122607894Y-104580443D01*
X122031693Y-104580443D01*
X122032106Y-104579557D01*
X122030420Y-104573263D01*
X121493140Y-104035983D01*
X121482846Y-104031183D01*
X121481100Y-104031651D01*
X121478919Y-104034081D01*
X121398280Y-104180763D01*
X121393726Y-104191388D01*
X121392351Y-104190799D01*
X121362702Y-104229288D01*
X121309922Y-104240886D01*
X121262035Y-104215844D01*
X121249881Y-104196683D01*
X121249484Y-104196894D01*
X121159182Y-104027061D01*
X121157370Y-104023653D01*
X121147880Y-104012016D01*
X121035802Y-103874595D01*
X121033361Y-103871602D01*
X120882180Y-103746535D01*
X120876804Y-103743628D01*
X121770461Y-103743628D01*
X121771192Y-103748350D01*
X122310149Y-104287306D01*
X122320443Y-104292106D01*
X122326737Y-104290420D01*
X122864459Y-103752699D01*
X122869259Y-103742406D01*
X122868829Y-103740802D01*
X122866210Y-103738468D01*
X122712789Y-103655513D01*
X122705701Y-103652534D01*
X122525745Y-103596829D01*
X122518204Y-103595281D01*
X122330858Y-103575589D01*
X122323168Y-103575535D01*
X122135561Y-103592609D01*
X122128005Y-103594050D01*
X121947290Y-103647238D01*
X121940153Y-103650122D01*
X121774708Y-103736615D01*
X121770461Y-103743628D01*
X120876804Y-103743628D01*
X120872288Y-103741186D01*
X120807716Y-103706273D01*
X120709585Y-103653213D01*
X120522152Y-103595193D01*
X120327019Y-103574683D01*
X120323173Y-103575033D01*
X120323172Y-103575033D01*
X120272519Y-103579643D01*
X120131618Y-103592466D01*
X120127911Y-103593557D01*
X119947102Y-103646772D01*
X119947099Y-103646773D01*
X119943393Y-103647864D01*
X119939966Y-103649656D01*
X119939965Y-103649656D01*
X119772937Y-103736976D01*
X119772934Y-103736978D01*
X119769512Y-103738767D01*
X119766505Y-103741185D01*
X119766503Y-103741186D01*
X119757593Y-103748350D01*
X119616600Y-103861711D01*
X119490480Y-104012016D01*
X119488618Y-104015404D01*
X119488616Y-104015406D01*
X119397818Y-104180567D01*
X119395956Y-104183954D01*
X119336628Y-104370978D01*
X119314757Y-104565963D01*
X118060500Y-104565963D01*
X118060500Y-103429177D01*
X118078982Y-103378397D01*
X118125782Y-103351377D01*
X118179000Y-103360761D01*
X118187592Y-103366502D01*
X118233048Y-103401382D01*
X118233050Y-103401383D01*
X118237159Y-103404536D01*
X118304115Y-103432270D01*
X118378450Y-103463061D01*
X118378452Y-103463061D01*
X118383238Y-103465044D01*
X118540000Y-103485682D01*
X118696762Y-103465044D01*
X118701548Y-103463061D01*
X118701550Y-103463061D01*
X118775885Y-103432270D01*
X118842841Y-103404536D01*
X118846950Y-103401383D01*
X118846952Y-103401382D01*
X118954562Y-103318810D01*
X118968282Y-103308282D01*
X118985066Y-103286408D01*
X119030641Y-103257373D01*
X119047741Y-103255500D01*
X124801912Y-103255500D01*
X124852692Y-103273982D01*
X124864587Y-103286408D01*
X124881372Y-103308282D01*
X124896718Y-103328282D01*
X124916930Y-103343791D01*
X125018048Y-103421382D01*
X125018050Y-103421383D01*
X125022159Y-103424536D01*
X125119954Y-103465044D01*
X125163450Y-103483061D01*
X125163452Y-103483061D01*
X125168238Y-103485044D01*
X125325000Y-103505682D01*
X125481762Y-103485044D01*
X125486548Y-103483061D01*
X125486550Y-103483061D01*
X125530046Y-103465044D01*
X125627841Y-103424536D01*
X125631950Y-103421383D01*
X125631952Y-103421382D01*
X125733070Y-103343791D01*
X125753282Y-103328282D01*
X125768628Y-103308282D01*
X125785413Y-103286408D01*
X125830989Y-103257373D01*
X125848088Y-103255500D01*
X131281741Y-103255500D01*
X131332521Y-103273982D01*
X131337602Y-103278639D01*
X131581361Y-103522398D01*
X131604199Y-103571374D01*
X131604500Y-103578259D01*
X131604500Y-106334759D01*
X131588175Y-106382851D01*
X131516539Y-106476210D01*
X131500464Y-106497159D01*
X131439956Y-106643238D01*
X131419318Y-106800000D01*
X131419994Y-106805135D01*
X131420895Y-106811977D01*
X131439956Y-106956762D01*
X131441939Y-106961548D01*
X131441939Y-106961550D01*
X131449185Y-106979042D01*
X131500464Y-107102841D01*
X131503617Y-107106950D01*
X131503618Y-107106952D01*
X131548126Y-107164956D01*
X131596718Y-107228282D01*
X131600822Y-107231431D01*
X131718048Y-107321382D01*
X131718050Y-107321383D01*
X131722159Y-107324536D01*
X131795691Y-107354994D01*
X131863450Y-107383061D01*
X131863452Y-107383061D01*
X131868238Y-107385044D01*
X132025000Y-107405682D01*
X132181762Y-107385044D01*
X132186548Y-107383061D01*
X132186550Y-107383061D01*
X132254309Y-107354994D01*
X132327841Y-107324536D01*
X132337891Y-107316824D01*
X132385982Y-107300500D01*
X137656437Y-107300500D01*
X137704529Y-107316825D01*
X137743048Y-107346382D01*
X137743051Y-107346383D01*
X137747159Y-107349536D01*
X137832644Y-107384945D01*
X137888450Y-107408061D01*
X137888452Y-107408061D01*
X137893238Y-107410044D01*
X138050000Y-107430682D01*
X138206762Y-107410044D01*
X138211548Y-107408061D01*
X138211550Y-107408061D01*
X138267356Y-107384945D01*
X138352841Y-107349536D01*
X138356950Y-107346383D01*
X138356952Y-107346382D01*
X138474178Y-107256431D01*
X138478282Y-107253282D01*
X138502545Y-107221662D01*
X138571382Y-107131952D01*
X138571383Y-107131950D01*
X138574536Y-107127841D01*
X138635044Y-106981762D01*
X138652391Y-106850000D01*
X144964318Y-106850000D01*
X144964994Y-106855135D01*
X144966663Y-106867814D01*
X144984956Y-107006762D01*
X145045464Y-107152841D01*
X145048617Y-107156950D01*
X145048618Y-107156952D01*
X145103823Y-107228896D01*
X145141718Y-107278282D01*
X145145822Y-107281431D01*
X145263048Y-107371382D01*
X145263050Y-107371383D01*
X145267159Y-107374536D01*
X145352883Y-107410044D01*
X145408450Y-107433061D01*
X145408452Y-107433061D01*
X145413238Y-107435044D01*
X145570000Y-107455682D01*
X145726762Y-107435044D01*
X145731548Y-107433061D01*
X145731550Y-107433061D01*
X145787117Y-107410044D01*
X145872841Y-107374536D01*
X145876950Y-107371383D01*
X145876952Y-107371382D01*
X145994178Y-107281431D01*
X145998282Y-107278282D01*
X146015066Y-107256408D01*
X146060641Y-107227373D01*
X146077741Y-107225500D01*
X148076504Y-107225500D01*
X148093131Y-107227269D01*
X148100687Y-107228896D01*
X148100689Y-107228896D01*
X148107066Y-107230269D01*
X148113547Y-107229502D01*
X148113549Y-107229502D01*
X148142730Y-107226048D01*
X148152015Y-107225500D01*
X148156193Y-107225500D01*
X148176107Y-107222186D01*
X148179785Y-107221663D01*
X148231210Y-107215576D01*
X148237098Y-107212748D01*
X148238390Y-107212373D01*
X148239237Y-107212180D01*
X148239801Y-107212002D01*
X148240608Y-107211671D01*
X148241869Y-107211239D01*
X148248313Y-107210167D01*
X148293905Y-107185566D01*
X148297224Y-107183876D01*
X148332496Y-107166939D01*
X148343900Y-107161463D01*
X148348131Y-107157906D01*
X148349125Y-107156912D01*
X148352869Y-107153752D01*
X148358329Y-107150806D01*
X148364327Y-107144318D01*
X148395164Y-107110958D01*
X148397315Y-107108722D01*
X149881227Y-105624811D01*
X149894236Y-105614304D01*
X149900724Y-105610115D01*
X149900727Y-105610112D01*
X149906210Y-105606572D01*
X149928450Y-105578361D01*
X149934629Y-105571409D01*
X149937576Y-105568462D01*
X149939472Y-105565809D01*
X149939476Y-105565804D01*
X149949308Y-105552045D01*
X149951544Y-105549066D01*
X149979560Y-105513529D01*
X149979561Y-105513527D01*
X149983603Y-105508400D01*
X149985768Y-105502237D01*
X149986416Y-105501057D01*
X149986877Y-105500324D01*
X149987151Y-105499797D01*
X149987483Y-105499005D01*
X149988078Y-105497791D01*
X149991872Y-105492481D01*
X150000231Y-105464533D01*
X150006719Y-105442837D01*
X150007862Y-105439320D01*
X150015789Y-105416748D01*
X151101587Y-105416748D01*
X151102094Y-105418641D01*
X151104332Y-105420663D01*
X151244347Y-105498915D01*
X151251381Y-105501989D01*
X151430552Y-105560204D01*
X151438066Y-105561856D01*
X151625114Y-105584161D01*
X151632814Y-105584322D01*
X151820637Y-105569869D01*
X151828206Y-105568535D01*
X152009659Y-105517872D01*
X152016820Y-105515094D01*
X152184967Y-105430158D01*
X152191468Y-105426033D01*
X152192687Y-105425080D01*
X152198704Y-105415451D01*
X152198066Y-105410908D01*
X151659851Y-104872694D01*
X151649557Y-104867894D01*
X151643263Y-104869580D01*
X151106387Y-105406455D01*
X151101587Y-105416748D01*
X150015789Y-105416748D01*
X150025023Y-105390452D01*
X150025500Y-105384945D01*
X150025500Y-105383543D01*
X150025913Y-105378658D01*
X150027691Y-105372713D01*
X150025561Y-105318503D01*
X150025500Y-105315401D01*
X150025500Y-104569816D01*
X150645582Y-104569816D01*
X150661346Y-104757547D01*
X150662733Y-104765102D01*
X150714660Y-104946196D01*
X150717488Y-104953338D01*
X150803601Y-105120896D01*
X150805466Y-105123790D01*
X150814106Y-105129105D01*
X150818737Y-105128421D01*
X151357306Y-104589851D01*
X151362106Y-104579557D01*
X151360420Y-104573263D01*
X150823140Y-104035983D01*
X150812846Y-104031183D01*
X150811100Y-104031651D01*
X150808919Y-104034081D01*
X150728280Y-104180763D01*
X150725248Y-104187837D01*
X150668287Y-104367401D01*
X150666689Y-104374917D01*
X150645689Y-104562136D01*
X150645582Y-104569816D01*
X150025500Y-104569816D01*
X150025500Y-103743628D01*
X151100461Y-103743628D01*
X151101192Y-103748350D01*
X151640149Y-104287306D01*
X151650443Y-104292106D01*
X151656737Y-104290420D01*
X152194459Y-103752699D01*
X152199259Y-103742406D01*
X152198829Y-103740802D01*
X152196210Y-103738468D01*
X152042789Y-103655513D01*
X152035701Y-103652534D01*
X151855745Y-103596829D01*
X151848204Y-103595281D01*
X151660858Y-103575589D01*
X151653168Y-103575535D01*
X151465561Y-103592609D01*
X151458005Y-103594050D01*
X151277290Y-103647238D01*
X151270153Y-103650122D01*
X151104708Y-103736615D01*
X151100461Y-103743628D01*
X150025500Y-103743628D01*
X150025500Y-103548260D01*
X150043982Y-103497480D01*
X150048639Y-103492398D01*
X150267400Y-103273638D01*
X150316376Y-103250801D01*
X150323261Y-103250500D01*
X152142259Y-103250500D01*
X152193039Y-103268982D01*
X152204931Y-103281405D01*
X152221718Y-103303282D01*
X152225822Y-103306431D01*
X152343048Y-103396382D01*
X152343050Y-103396383D01*
X152347159Y-103399536D01*
X152426186Y-103432270D01*
X152488450Y-103458061D01*
X152488452Y-103458061D01*
X152493238Y-103460044D01*
X152650000Y-103480682D01*
X152806762Y-103460044D01*
X152811548Y-103458061D01*
X152811550Y-103458061D01*
X152873814Y-103432270D01*
X152952841Y-103399536D01*
X152956950Y-103396383D01*
X152956952Y-103396382D01*
X153074178Y-103306431D01*
X153078282Y-103303282D01*
X153098904Y-103276408D01*
X153144479Y-103247373D01*
X153161578Y-103245500D01*
X160811741Y-103245500D01*
X160862521Y-103263982D01*
X160867602Y-103268639D01*
X161181361Y-103582398D01*
X161204199Y-103631374D01*
X161204500Y-103638259D01*
X161204500Y-108563422D01*
X161186018Y-108614202D01*
X161173594Y-108626096D01*
X161146718Y-108646718D01*
X161143569Y-108650822D01*
X161059149Y-108760841D01*
X161050464Y-108772159D01*
X160989956Y-108918238D01*
X160969318Y-109075000D01*
X160969994Y-109080135D01*
X160971293Y-109090000D01*
X160989956Y-109231762D01*
X160991939Y-109236548D01*
X160991939Y-109236550D01*
X160998152Y-109251550D01*
X161050464Y-109377841D01*
X161053617Y-109381950D01*
X161053618Y-109381952D01*
X161117706Y-109465473D01*
X161146718Y-109503282D01*
X161150822Y-109506431D01*
X161268048Y-109596382D01*
X161268050Y-109596383D01*
X161272159Y-109599536D01*
X161375609Y-109642386D01*
X161413450Y-109658061D01*
X161413452Y-109658061D01*
X161418238Y-109660044D01*
X161575000Y-109680682D01*
X161731762Y-109660044D01*
X161736548Y-109658061D01*
X161736550Y-109658061D01*
X161774391Y-109642386D01*
X161877841Y-109599536D01*
X161881950Y-109596383D01*
X161881952Y-109596382D01*
X161999178Y-109506431D01*
X162003282Y-109503282D01*
X162032294Y-109465473D01*
X162096382Y-109381952D01*
X162096383Y-109381950D01*
X162099536Y-109377841D01*
X162151848Y-109251550D01*
X162158061Y-109236550D01*
X162158061Y-109236548D01*
X162160044Y-109231762D01*
X162178707Y-109090000D01*
X162180006Y-109080135D01*
X162180682Y-109075000D01*
X162160044Y-108918238D01*
X162099536Y-108772159D01*
X162090852Y-108760841D01*
X162006431Y-108650822D01*
X162003282Y-108646718D01*
X161986408Y-108633770D01*
X161957373Y-108588193D01*
X161955500Y-108571095D01*
X161955500Y-103498496D01*
X161957269Y-103481869D01*
X161958896Y-103474313D01*
X161958896Y-103474311D01*
X161960269Y-103467934D01*
X161959101Y-103458061D01*
X161956048Y-103432270D01*
X161955500Y-103422985D01*
X161955500Y-103418807D01*
X161953691Y-103407934D01*
X161952187Y-103398900D01*
X161951663Y-103395217D01*
X161946344Y-103350277D01*
X161946343Y-103350275D01*
X161945576Y-103343791D01*
X161942750Y-103337905D01*
X161942372Y-103336605D01*
X161942180Y-103335761D01*
X161942006Y-103335211D01*
X161941675Y-103334403D01*
X161941240Y-103333133D01*
X161940167Y-103326687D01*
X161915573Y-103281104D01*
X161913885Y-103277791D01*
X161893617Y-103235584D01*
X161893614Y-103235579D01*
X161891463Y-103231100D01*
X161887906Y-103226869D01*
X161886912Y-103225875D01*
X161883752Y-103222131D01*
X161880806Y-103216671D01*
X161876013Y-103212241D01*
X161876012Y-103212239D01*
X161840958Y-103179836D01*
X161838722Y-103177685D01*
X161299810Y-102638773D01*
X161289303Y-102625764D01*
X161281572Y-102613790D01*
X161253357Y-102591547D01*
X161246405Y-102585368D01*
X161243462Y-102582425D01*
X161227038Y-102570688D01*
X161224090Y-102568475D01*
X161205929Y-102554158D01*
X161183400Y-102536397D01*
X161177243Y-102534235D01*
X161176059Y-102533584D01*
X161175337Y-102533130D01*
X161174799Y-102532850D01*
X161173998Y-102532515D01*
X161172795Y-102531926D01*
X161167481Y-102528128D01*
X161117842Y-102513283D01*
X161114323Y-102512139D01*
X161070145Y-102496625D01*
X161065452Y-102494977D01*
X161059945Y-102494500D01*
X161058534Y-102494500D01*
X161053654Y-102494087D01*
X161047713Y-102492310D01*
X161041192Y-102492566D01*
X161041190Y-102492566D01*
X160993528Y-102494439D01*
X160990426Y-102494500D01*
X153153905Y-102494500D01*
X153103125Y-102476018D01*
X153091230Y-102463592D01*
X153081432Y-102450823D01*
X153081430Y-102450821D01*
X153078282Y-102446718D01*
X153003151Y-102389068D01*
X152956952Y-102353618D01*
X152956950Y-102353617D01*
X152952841Y-102350464D01*
X152849391Y-102307614D01*
X152811550Y-102291939D01*
X152811548Y-102291939D01*
X152806762Y-102289956D01*
X152650000Y-102269318D01*
X152493238Y-102289956D01*
X152488452Y-102291939D01*
X152488450Y-102291939D01*
X152450609Y-102307614D01*
X152347159Y-102350464D01*
X152343050Y-102353617D01*
X152343048Y-102353618D01*
X152296849Y-102389068D01*
X152221718Y-102446718D01*
X152204934Y-102468592D01*
X152159359Y-102497627D01*
X152142259Y-102499500D01*
X150183496Y-102499500D01*
X150166868Y-102497730D01*
X150159317Y-102496104D01*
X150159315Y-102496104D01*
X150152934Y-102494730D01*
X150117874Y-102498880D01*
X150117262Y-102498952D01*
X150107977Y-102499500D01*
X150103807Y-102499500D01*
X150100589Y-102500036D01*
X150100585Y-102500036D01*
X150083912Y-102502811D01*
X150080228Y-102503335D01*
X150035278Y-102508655D01*
X150035277Y-102508655D01*
X150028791Y-102509423D01*
X150022902Y-102512251D01*
X150021608Y-102512627D01*
X150020769Y-102512818D01*
X150020202Y-102512997D01*
X150019394Y-102513328D01*
X150018130Y-102513761D01*
X150011687Y-102514833D01*
X150005940Y-102517934D01*
X150005937Y-102517935D01*
X149966109Y-102539425D01*
X149962794Y-102541114D01*
X149920586Y-102561383D01*
X149920584Y-102561384D01*
X149916101Y-102563537D01*
X149911869Y-102567094D01*
X149910877Y-102568086D01*
X149907132Y-102571247D01*
X149901671Y-102574194D01*
X149882098Y-102595368D01*
X149864836Y-102614042D01*
X149862685Y-102616278D01*
X149418773Y-103060190D01*
X149405767Y-103070695D01*
X149393790Y-103078428D01*
X149371965Y-103106113D01*
X149371547Y-103106643D01*
X149365368Y-103113595D01*
X149362425Y-103116538D01*
X149350688Y-103132962D01*
X149348477Y-103135907D01*
X149316397Y-103176600D01*
X149314235Y-103182757D01*
X149313584Y-103183941D01*
X149313130Y-103184663D01*
X149312850Y-103185201D01*
X149312515Y-103186002D01*
X149311926Y-103187205D01*
X149308128Y-103192519D01*
X149293283Y-103242158D01*
X149292139Y-103245677D01*
X149277835Y-103286409D01*
X149274977Y-103294548D01*
X149274500Y-103300055D01*
X149274500Y-103301466D01*
X149274087Y-103306346D01*
X149272310Y-103312287D01*
X149272566Y-103318808D01*
X149272566Y-103318810D01*
X149274439Y-103366472D01*
X149274500Y-103369574D01*
X149274500Y-105136741D01*
X149256018Y-105187521D01*
X149251361Y-105192602D01*
X147992602Y-106451361D01*
X147943626Y-106474199D01*
X147936741Y-106474500D01*
X146077741Y-106474500D01*
X146026961Y-106456018D01*
X146015069Y-106443595D01*
X145998282Y-106421718D01*
X145961597Y-106393569D01*
X145876952Y-106328618D01*
X145876950Y-106328617D01*
X145872841Y-106325464D01*
X145750595Y-106274828D01*
X145731550Y-106266939D01*
X145731548Y-106266939D01*
X145726762Y-106264956D01*
X145570000Y-106244318D01*
X145413238Y-106264956D01*
X145408452Y-106266939D01*
X145408450Y-106266939D01*
X145389405Y-106274828D01*
X145267159Y-106325464D01*
X145263050Y-106328617D01*
X145263048Y-106328618D01*
X145178403Y-106393569D01*
X145141718Y-106421718D01*
X145138570Y-106425821D01*
X145138569Y-106425822D01*
X145065134Y-106521525D01*
X145045464Y-106547159D01*
X144984956Y-106693238D01*
X144964318Y-106850000D01*
X138652391Y-106850000D01*
X138655682Y-106825000D01*
X138653968Y-106811977D01*
X138638335Y-106693238D01*
X138635044Y-106668238D01*
X138628348Y-106652071D01*
X138604915Y-106595500D01*
X138574536Y-106522159D01*
X138564800Y-106509470D01*
X138488348Y-106409836D01*
X138478282Y-106396718D01*
X138437920Y-106365747D01*
X138356952Y-106303618D01*
X138356950Y-106303617D01*
X138352841Y-106300464D01*
X138236092Y-106252105D01*
X138211550Y-106241939D01*
X138211548Y-106241939D01*
X138206762Y-106239956D01*
X138050000Y-106219318D01*
X137893238Y-106239956D01*
X137888452Y-106241939D01*
X137888450Y-106241939D01*
X137863908Y-106252105D01*
X137747159Y-106300464D01*
X137743050Y-106303617D01*
X137743048Y-106303618D01*
X137662080Y-106365747D01*
X137621718Y-106396718D01*
X137611652Y-106409836D01*
X137528201Y-106518592D01*
X137482625Y-106547627D01*
X137465526Y-106549500D01*
X132624003Y-106549500D01*
X132573223Y-106531018D01*
X132554871Y-106505988D01*
X132554108Y-106506429D01*
X132551517Y-106501941D01*
X132549536Y-106497159D01*
X132518621Y-106456869D01*
X132456431Y-106375822D01*
X132453282Y-106371718D01*
X132386408Y-106320403D01*
X132357373Y-106274828D01*
X132355500Y-106257729D01*
X132355500Y-103438496D01*
X132357269Y-103421869D01*
X132358896Y-103414313D01*
X132358896Y-103414311D01*
X132360269Y-103407934D01*
X132356048Y-103372270D01*
X132355500Y-103362985D01*
X132355500Y-103358807D01*
X132352186Y-103338893D01*
X132351662Y-103335211D01*
X132348848Y-103311431D01*
X132345576Y-103283790D01*
X132342748Y-103277902D01*
X132342373Y-103276610D01*
X132342180Y-103275763D01*
X132342002Y-103275199D01*
X132341671Y-103274392D01*
X132341239Y-103273131D01*
X132340167Y-103266687D01*
X132315566Y-103221094D01*
X132313876Y-103217776D01*
X132311147Y-103212094D01*
X132291463Y-103171100D01*
X132287906Y-103166869D01*
X132286912Y-103165875D01*
X132283752Y-103162131D01*
X132280806Y-103156671D01*
X132276013Y-103152241D01*
X132276012Y-103152239D01*
X132240958Y-103119836D01*
X132238722Y-103117685D01*
X131769810Y-102648773D01*
X131759303Y-102635764D01*
X131757407Y-102632827D01*
X131751572Y-102623790D01*
X131723357Y-102601547D01*
X131716405Y-102595368D01*
X131713462Y-102592425D01*
X131697038Y-102580688D01*
X131694090Y-102578475D01*
X131685986Y-102572086D01*
X131653400Y-102546397D01*
X131647243Y-102544235D01*
X131646059Y-102543584D01*
X131645337Y-102543130D01*
X131644799Y-102542850D01*
X131643998Y-102542515D01*
X131642795Y-102541926D01*
X131637481Y-102538128D01*
X131587842Y-102523283D01*
X131584323Y-102522139D01*
X131540145Y-102506625D01*
X131535452Y-102504977D01*
X131529945Y-102504500D01*
X131528534Y-102504500D01*
X131523654Y-102504087D01*
X131517713Y-102502310D01*
X131511192Y-102502566D01*
X131511190Y-102502566D01*
X131463528Y-102504439D01*
X131460426Y-102504500D01*
X125817395Y-102504500D01*
X125766615Y-102486018D01*
X125760232Y-102479351D01*
X125760096Y-102479487D01*
X125756431Y-102475822D01*
X125753282Y-102471718D01*
X125672521Y-102409748D01*
X125631952Y-102378618D01*
X125631950Y-102378617D01*
X125627841Y-102375464D01*
X125511619Y-102327323D01*
X125486550Y-102316939D01*
X125486548Y-102316939D01*
X125481762Y-102314956D01*
X125325000Y-102294318D01*
X125168238Y-102314956D01*
X125163452Y-102316939D01*
X125163450Y-102316939D01*
X125138381Y-102327323D01*
X125022159Y-102375464D01*
X125018050Y-102378617D01*
X125018048Y-102378618D01*
X124977479Y-102409748D01*
X124896718Y-102471718D01*
X124893569Y-102475822D01*
X124889904Y-102479487D01*
X124888395Y-102477978D01*
X124849703Y-102502628D01*
X124832605Y-102504500D01*
X119047741Y-102504500D01*
X118996961Y-102486018D01*
X118985069Y-102473595D01*
X118968282Y-102451718D01*
X118943486Y-102432691D01*
X118846952Y-102358618D01*
X118846950Y-102358617D01*
X118842841Y-102355464D01*
X118739391Y-102312614D01*
X118701550Y-102296939D01*
X118701548Y-102296939D01*
X118696762Y-102294956D01*
X118540000Y-102274318D01*
X118383238Y-102294956D01*
X118378452Y-102296939D01*
X118378450Y-102296939D01*
X118340609Y-102312614D01*
X118237159Y-102355464D01*
X118233050Y-102358617D01*
X118233048Y-102358618D01*
X118187592Y-102393498D01*
X118136054Y-102409748D01*
X118086128Y-102389068D01*
X118061176Y-102341134D01*
X118060500Y-102330823D01*
X118060500Y-102079490D01*
X118078982Y-102028710D01*
X118125782Y-102001690D01*
X118139498Y-102000490D01*
X127312806Y-102000205D01*
X132257109Y-102000052D01*
X132272513Y-102001569D01*
X132289564Y-102004959D01*
X132297193Y-102003441D01*
X132304976Y-102003441D01*
X132304976Y-102003451D01*
X132317728Y-102002824D01*
X132399019Y-102010827D01*
X132428135Y-102013693D01*
X132443324Y-102016714D01*
X132569120Y-102054868D01*
X132583429Y-102060794D01*
X132699369Y-102122760D01*
X132712242Y-102131361D01*
X132813865Y-102214756D01*
X132824816Y-102225706D01*
X132899693Y-102316939D01*
X132908215Y-102327323D01*
X132916819Y-102340200D01*
X132978791Y-102456136D01*
X132984718Y-102470445D01*
X133022878Y-102596240D01*
X133025900Y-102611429D01*
X133036759Y-102721673D01*
X133036110Y-102734869D01*
X133036110Y-102742368D01*
X133034592Y-102750000D01*
X133036110Y-102757631D01*
X133036110Y-102757632D01*
X133037982Y-102767043D01*
X133039500Y-102782455D01*
X133039500Y-104767545D01*
X133037982Y-104782957D01*
X133034592Y-104800000D01*
X133036110Y-104807631D01*
X133036110Y-104809366D01*
X133036598Y-104812895D01*
X133051033Y-104996303D01*
X133097002Y-105187771D01*
X133098188Y-105190635D01*
X133098189Y-105190637D01*
X133170984Y-105366373D01*
X133172358Y-105369691D01*
X133275246Y-105537583D01*
X133277260Y-105539941D01*
X133383257Y-105664041D01*
X133403132Y-105687311D01*
X133552867Y-105815190D01*
X133555514Y-105816812D01*
X133718118Y-105916450D01*
X133718125Y-105916454D01*
X133720763Y-105918070D01*
X133755423Y-105932425D01*
X133899820Y-105992230D01*
X133899825Y-105992232D01*
X133902687Y-105993417D01*
X133905702Y-105994141D01*
X133905706Y-105994142D01*
X134091136Y-106038652D01*
X134091141Y-106038653D01*
X134094158Y-106039377D01*
X134097250Y-106039620D01*
X134097255Y-106039621D01*
X134193331Y-106047178D01*
X134277181Y-106053773D01*
X134281279Y-106054340D01*
X134282832Y-106054340D01*
X134290462Y-106055857D01*
X134298091Y-106054339D01*
X134298095Y-106054339D01*
X134307501Y-106052467D01*
X134322914Y-106050948D01*
X140934806Y-106050725D01*
X147547551Y-106050501D01*
X147562960Y-106052019D01*
X147580000Y-106055408D01*
X147587631Y-106053890D01*
X147589366Y-106053890D01*
X147592895Y-106053402D01*
X147642041Y-106049534D01*
X147776303Y-106038967D01*
X147967771Y-105992998D01*
X147977971Y-105988773D01*
X148146819Y-105918832D01*
X148146823Y-105918830D01*
X148149691Y-105917642D01*
X148317583Y-105814754D01*
X148467311Y-105686868D01*
X148595190Y-105537133D01*
X148612373Y-105509091D01*
X148696450Y-105371882D01*
X148696454Y-105371875D01*
X148698070Y-105369237D01*
X148739844Y-105268374D01*
X148772230Y-105190180D01*
X148772232Y-105190175D01*
X148773417Y-105187313D01*
X148779390Y-105162431D01*
X148818652Y-104998864D01*
X148818653Y-104998859D01*
X148819377Y-104995842D01*
X148819659Y-104992268D01*
X148829441Y-104867894D01*
X148833773Y-104812819D01*
X148834340Y-104808721D01*
X148834340Y-104807168D01*
X148835857Y-104799538D01*
X148834339Y-104791909D01*
X148834339Y-104791905D01*
X148832454Y-104782433D01*
X148830935Y-104767052D01*
X148830421Y-103594050D01*
X148830065Y-102782855D01*
X148831581Y-102767423D01*
X148834959Y-102750436D01*
X148833441Y-102742807D01*
X148833441Y-102735024D01*
X148833451Y-102735024D01*
X148832824Y-102722271D01*
X148843693Y-102611865D01*
X148846714Y-102596676D01*
X148871988Y-102513346D01*
X148884868Y-102470880D01*
X148890794Y-102456571D01*
X148952760Y-102340631D01*
X148961361Y-102327758D01*
X149044756Y-102226135D01*
X149055706Y-102215184D01*
X149157326Y-102131783D01*
X149170200Y-102123181D01*
X149286136Y-102061209D01*
X149300445Y-102055282D01*
X149426240Y-102017122D01*
X149441429Y-102014100D01*
X149497185Y-102008608D01*
X149551676Y-102003241D01*
X149564869Y-102003890D01*
X149572368Y-102003890D01*
X149580000Y-102005408D01*
X149587631Y-102003890D01*
X149587633Y-102003890D01*
X149597049Y-102002017D01*
X149612458Y-102000499D01*
X155629396Y-102000276D01*
X161647110Y-102000052D01*
X161662514Y-102001569D01*
G37*
G04 #@! TD.AperFunction*
M02*
