G04 #@! TF.GenerationSoftware,KiCad,Pcbnew,(6.0.6-0)*
G04 #@! TF.CreationDate,2022-09-13T12:01:24-04:00*
G04 #@! TF.ProjectId,DA-15 Board,44412d31-3520-4426-9f61-72642e6b6963,1*
G04 #@! TF.SameCoordinates,Original*
G04 #@! TF.FileFunction,Profile,NP*
%FSLAX46Y46*%
G04 Gerber Fmt 4.6, Leading zero omitted, Abs format (unit mm)*
G04 Created by KiCad (PCBNEW (6.0.6-0)) date 2022-09-13 12:01:24*
%MOMM*%
%LPD*%
G01*
G04 APERTURE LIST*
G04 #@! TA.AperFunction,Profile*
%ADD10C,0.100000*%
G04 #@! TD*
G04 APERTURE END LIST*
D10*
X138370000Y-93740000D02*
X139120000Y-92990000D01*
X135410000Y-93740000D02*
X134670000Y-92994481D01*
X149360000Y-94460038D02*
G75*
G03*
X149360000Y-92988962I0J735538D01*
G01*
X131960000Y-91429551D02*
G75*
G03*
X131252576Y-91722576I0J-1000449D01*
G01*
X150269955Y-97109974D02*
G75*
G03*
X149640000Y-96050000I-612655J353074D01*
G01*
X152910199Y-92430000D02*
G75*
G03*
X151910000Y-91429801I-1000199J0D01*
G01*
X134350000Y-92994481D02*
G75*
G03*
X134350000Y-94465519I0J-735519D01*
G01*
X152910000Y-112250000D02*
X127957247Y-112252952D01*
X148210000Y-100370000D02*
X139600000Y-100370000D01*
X127256891Y-95725452D02*
G75*
G03*
X126963845Y-96432855I707409J-707448D01*
G01*
X126957048Y-111252753D02*
X126963845Y-96432855D01*
X149360000Y-94460000D02*
X134350000Y-94465519D01*
X130952271Y-99952146D02*
X129730000Y-97440000D01*
X127256870Y-95725431D02*
X131252576Y-91722576D01*
X139120000Y-92990000D02*
X149360000Y-92988962D01*
X134700000Y-96790000D02*
X135440000Y-96050000D01*
X134670000Y-92994481D02*
X134350000Y-92994481D01*
X131960000Y-91429551D02*
X151910000Y-91429801D01*
X139600000Y-100370000D02*
X138860000Y-99630000D01*
X130220000Y-96790000D02*
X134700000Y-96790000D01*
X135440000Y-96050000D02*
X149640000Y-96050000D01*
X126957048Y-111252753D02*
G75*
G03*
X127957247Y-112252952I1000152J-47D01*
G01*
X130952225Y-99952167D02*
G75*
G03*
X131612271Y-100372146I652975J297567D01*
G01*
X135410000Y-93740000D02*
X138370000Y-93740000D01*
X150270000Y-97110000D02*
X148870000Y-99950000D01*
X152910199Y-92430000D02*
X152910000Y-112250000D01*
X135430000Y-99630000D02*
X134690000Y-100370000D01*
X134690000Y-100370000D02*
X131612271Y-100372146D01*
X130220000Y-96790000D02*
X129730000Y-97440000D01*
X138860000Y-99630000D02*
X135430000Y-99630000D01*
X148210000Y-100370042D02*
G75*
G03*
X148870000Y-99950000I7000J717542D01*
G01*
M02*
