G04 #@! TF.GenerationSoftware,KiCad,Pcbnew,(6.0.6-0)*
G04 #@! TF.CreationDate,2022-09-13T12:01:24-04:00*
G04 #@! TF.ProjectId,DA-15 Board,44412d31-3520-4426-9f61-72642e6b6963,1*
G04 #@! TF.SameCoordinates,Original*
G04 #@! TF.FileFunction,Copper,L2,Bot*
G04 #@! TF.FilePolarity,Positive*
%FSLAX46Y46*%
G04 Gerber Fmt 4.6, Leading zero omitted, Abs format (unit mm)*
G04 Created by KiCad (PCBNEW (6.0.6-0)) date 2022-09-13 12:01:24*
%MOMM*%
%LPD*%
G01*
G04 APERTURE LIST*
G04 #@! TA.AperFunction,ComponentPad*
%ADD10R,1.295400X1.295400*%
G04 #@! TD*
G04 #@! TA.AperFunction,ComponentPad*
%ADD11C,1.295400*%
G04 #@! TD*
G04 #@! TA.AperFunction,ComponentPad*
%ADD12C,1.600000*%
G04 #@! TD*
G04 #@! TA.AperFunction,ComponentPad*
%ADD13C,1.300000*%
G04 #@! TD*
G04 #@! TA.AperFunction,ViaPad*
%ADD14C,0.700000*%
G04 #@! TD*
G04 #@! TA.AperFunction,Conductor*
%ADD15C,0.250000*%
G04 #@! TD*
G04 APERTURE END LIST*
D10*
X140190000Y-104070000D03*
D11*
X140190000Y-106610000D03*
X140190000Y-109150000D03*
D12*
X132990000Y-96790000D03*
X130220000Y-96790000D03*
X137145000Y-99630000D03*
D13*
X153120000Y-103260000D03*
D10*
X135200000Y-104080000D03*
D11*
X135200000Y-106620000D03*
X135200000Y-109160000D03*
D13*
X136950000Y-93740000D03*
D14*
X142950000Y-109150000D03*
D15*
X142950000Y-106830000D02*
X140190000Y-104070000D01*
X142950000Y-109150000D02*
X142950000Y-106830000D01*
X135200000Y-109160000D02*
X136632081Y-110592081D01*
X136632081Y-110592081D02*
X143557919Y-110592081D01*
X143557919Y-110592081D02*
X150770000Y-103380000D01*
X150770000Y-103380000D02*
X152785089Y-103380000D01*
X137130000Y-104690000D02*
X137130000Y-99755000D01*
X135200000Y-106620000D02*
X137130000Y-104690000D01*
X129650000Y-107900000D02*
X128300000Y-106550000D01*
X129625000Y-95150000D02*
X131380000Y-95150000D01*
X131380000Y-95150000D02*
X132890000Y-96660000D01*
X128300000Y-96475000D02*
X129625000Y-95150000D01*
X132890000Y-96660000D02*
X132890000Y-96665000D01*
X128300000Y-106550000D02*
X128300000Y-96475000D01*
X140190000Y-106610000D02*
X138900000Y-107900000D01*
X138900000Y-107900000D02*
X129650000Y-107900000D01*
M02*
