G04 #@! TF.GenerationSoftware,KiCad,Pcbnew,(6.0.6-0)*
G04 #@! TF.CreationDate,2022-09-13T12:01:24-04:00*
G04 #@! TF.ProjectId,DA-15 Board,44412d31-3520-4426-9f61-72642e6b6963,1*
G04 #@! TF.SameCoordinates,Original*
G04 #@! TF.FileFunction,Legend,Bot*
G04 #@! TF.FilePolarity,Positive*
%FSLAX46Y46*%
G04 Gerber Fmt 4.6, Leading zero omitted, Abs format (unit mm)*
G04 Created by KiCad (PCBNEW (6.0.6-0)) date 2022-09-13 12:01:24*
%MOMM*%
%LPD*%
G01*
G04 APERTURE LIST*
G04 Aperture macros list*
%AMRoundRect*
0 Rectangle with rounded corners*
0 $1 Rounding radius*
0 $2 $3 $4 $5 $6 $7 $8 $9 X,Y pos of 4 corners*
0 Add a 4 corners polygon primitive as box body*
4,1,4,$2,$3,$4,$5,$6,$7,$8,$9,$2,$3,0*
0 Add four circle primitives for the rounded corners*
1,1,$1+$1,$2,$3*
1,1,$1+$1,$4,$5*
1,1,$1+$1,$6,$7*
1,1,$1+$1,$8,$9*
0 Add four rect primitives between the rounded corners*
20,1,$1+$1,$2,$3,$4,$5,0*
20,1,$1+$1,$4,$5,$6,$7,0*
20,1,$1+$1,$6,$7,$8,$9,0*
20,1,$1+$1,$8,$9,$2,$3,0*%
G04 Aperture macros list end*
%ADD10C,0.127000*%
%ADD11RoundRect,0.050800X-0.647700X-0.647700X0.647700X-0.647700X0.647700X0.647700X-0.647700X0.647700X0*%
%ADD12C,1.397000*%
%ADD13C,1.701600*%
%ADD14C,1.401600*%
G04 APERTURE END LIST*
D10*
X133530000Y-101620000D02*
X141880000Y-101620000D01*
X141880000Y-101620000D02*
X141880000Y-111550000D01*
X141880000Y-111550000D02*
X133530000Y-111550000D01*
X133530000Y-111550000D02*
X133530000Y-101620000D01*
X132417142Y-106251304D02*
X132417142Y-105489304D01*
X132054285Y-105743304D02*
X132054285Y-106251304D01*
X132054285Y-105815875D02*
X132018000Y-105779590D01*
X131945428Y-105743304D01*
X131836571Y-105743304D01*
X131764000Y-105779590D01*
X131727714Y-105852161D01*
X131727714Y-106251304D01*
X131437428Y-105743304D02*
X131256000Y-106251304D01*
X131074571Y-105743304D01*
X130784285Y-106251304D02*
X130784285Y-105743304D01*
X130784285Y-105489304D02*
X130820571Y-105525590D01*
X130784285Y-105561875D01*
X130748000Y-105525590D01*
X130784285Y-105489304D01*
X130784285Y-105561875D01*
X130457714Y-106215018D02*
X130385142Y-106251304D01*
X130240000Y-106251304D01*
X130167428Y-106215018D01*
X130131142Y-106142447D01*
X130131142Y-106106161D01*
X130167428Y-106033590D01*
X130240000Y-105997304D01*
X130348857Y-105997304D01*
X130421428Y-105961018D01*
X130457714Y-105888447D01*
X130457714Y-105852161D01*
X130421428Y-105779590D01*
X130348857Y-105743304D01*
X130240000Y-105743304D01*
X130167428Y-105779590D01*
X129804571Y-106251304D02*
X129804571Y-105743304D01*
X129804571Y-105489304D02*
X129840857Y-105525590D01*
X129804571Y-105561875D01*
X129768285Y-105525590D01*
X129804571Y-105489304D01*
X129804571Y-105561875D01*
X129441714Y-106251304D02*
X129441714Y-105489304D01*
X129441714Y-105779590D02*
X129369142Y-105743304D01*
X129224000Y-105743304D01*
X129151428Y-105779590D01*
X129115142Y-105815875D01*
X129078857Y-105888447D01*
X129078857Y-106106161D01*
X129115142Y-106178732D01*
X129151428Y-106215018D01*
X129224000Y-106251304D01*
X129369142Y-106251304D01*
X129441714Y-106215018D01*
X128643428Y-106251304D02*
X128716000Y-106215018D01*
X128752285Y-106142447D01*
X128752285Y-105489304D01*
X128062857Y-106215018D02*
X128135428Y-106251304D01*
X128280571Y-106251304D01*
X128353142Y-106215018D01*
X128389428Y-106142447D01*
X128389428Y-105852161D01*
X128353142Y-105779590D01*
X128280571Y-105743304D01*
X128135428Y-105743304D01*
X128062857Y-105779590D01*
X128026571Y-105852161D01*
X128026571Y-105924732D01*
X128389428Y-105997304D01*
X131310428Y-107441838D02*
X131201571Y-107478124D01*
X131020142Y-107478124D01*
X130947571Y-107441838D01*
X130911285Y-107405552D01*
X130875000Y-107332981D01*
X130875000Y-107260410D01*
X130911285Y-107187838D01*
X130947571Y-107151552D01*
X131020142Y-107115267D01*
X131165285Y-107078981D01*
X131237857Y-107042695D01*
X131274142Y-107006410D01*
X131310428Y-106933838D01*
X131310428Y-106861267D01*
X131274142Y-106788695D01*
X131237857Y-106752410D01*
X131165285Y-106716124D01*
X130983857Y-106716124D01*
X130875000Y-106752410D01*
X130548428Y-107478124D02*
X130548428Y-106970124D01*
X130548428Y-106716124D02*
X130584714Y-106752410D01*
X130548428Y-106788695D01*
X130512142Y-106752410D01*
X130548428Y-106716124D01*
X130548428Y-106788695D01*
X129859000Y-107478124D02*
X129859000Y-106716124D01*
X129859000Y-107441838D02*
X129931571Y-107478124D01*
X130076714Y-107478124D01*
X130149285Y-107441838D01*
X130185571Y-107405552D01*
X130221857Y-107332981D01*
X130221857Y-107115267D01*
X130185571Y-107042695D01*
X130149285Y-107006410D01*
X130076714Y-106970124D01*
X129931571Y-106970124D01*
X129859000Y-107006410D01*
X129205857Y-107441838D02*
X129278428Y-107478124D01*
X129423571Y-107478124D01*
X129496142Y-107441838D01*
X129532428Y-107369267D01*
X129532428Y-107078981D01*
X129496142Y-107006410D01*
X129423571Y-106970124D01*
X129278428Y-106970124D01*
X129205857Y-107006410D01*
X129169571Y-107078981D01*
X129169571Y-107151552D01*
X129532428Y-107224124D01*
X141410000Y-110971428D02*
X141410000Y-110371428D01*
X141152857Y-110942857D02*
X141095714Y-110971428D01*
X140981428Y-110971428D01*
X140924285Y-110942857D01*
X140895714Y-110885714D01*
X140895714Y-110857142D01*
X140924285Y-110800000D01*
X140981428Y-110771428D01*
X141067142Y-110771428D01*
X141124285Y-110742857D01*
X141152857Y-110685714D01*
X141152857Y-110657142D01*
X141124285Y-110600000D01*
X141067142Y-110571428D01*
X140981428Y-110571428D01*
X140924285Y-110600000D01*
X140552857Y-110971428D02*
X140610000Y-110942857D01*
X140638571Y-110914285D01*
X140667142Y-110857142D01*
X140667142Y-110685714D01*
X140638571Y-110628571D01*
X140610000Y-110600000D01*
X140552857Y-110571428D01*
X140467142Y-110571428D01*
X140410000Y-110600000D01*
X140381428Y-110628571D01*
X140352857Y-110685714D01*
X140352857Y-110857142D01*
X140381428Y-110914285D01*
X140410000Y-110942857D01*
X140467142Y-110971428D01*
X140552857Y-110971428D01*
X140010000Y-110971428D02*
X140067142Y-110942857D01*
X140095714Y-110885714D01*
X140095714Y-110371428D01*
X139524285Y-110971428D02*
X139524285Y-110657142D01*
X139552857Y-110600000D01*
X139610000Y-110571428D01*
X139724285Y-110571428D01*
X139781428Y-110600000D01*
X139524285Y-110942857D02*
X139581428Y-110971428D01*
X139724285Y-110971428D01*
X139781428Y-110942857D01*
X139810000Y-110885714D01*
X139810000Y-110828571D01*
X139781428Y-110771428D01*
X139724285Y-110742857D01*
X139581428Y-110742857D01*
X139524285Y-110714285D01*
X139324285Y-110571428D02*
X139095714Y-110571428D01*
X139238571Y-110371428D02*
X139238571Y-110885714D01*
X139210000Y-110942857D01*
X139152857Y-110971428D01*
X139095714Y-110971428D01*
X138667142Y-110942857D02*
X138724285Y-110971428D01*
X138838571Y-110971428D01*
X138895714Y-110942857D01*
X138924285Y-110885714D01*
X138924285Y-110657142D01*
X138895714Y-110600000D01*
X138838571Y-110571428D01*
X138724285Y-110571428D01*
X138667142Y-110600000D01*
X138638571Y-110657142D01*
X138638571Y-110714285D01*
X138924285Y-110771428D01*
X137981428Y-110571428D02*
X137867142Y-110971428D01*
X137752857Y-110685714D01*
X137638571Y-110971428D01*
X137524285Y-110571428D01*
X137295714Y-110971428D02*
X137295714Y-110571428D01*
X137295714Y-110371428D02*
X137324285Y-110400000D01*
X137295714Y-110428571D01*
X137267142Y-110400000D01*
X137295714Y-110371428D01*
X137295714Y-110428571D01*
X137095714Y-110571428D02*
X136867142Y-110571428D01*
X137010000Y-110371428D02*
X137010000Y-110885714D01*
X136981428Y-110942857D01*
X136924285Y-110971428D01*
X136867142Y-110971428D01*
X136667142Y-110971428D02*
X136667142Y-110371428D01*
X136410000Y-110971428D02*
X136410000Y-110657142D01*
X136438571Y-110600000D01*
X136495714Y-110571428D01*
X136581428Y-110571428D01*
X136638571Y-110600000D01*
X136667142Y-110628571D01*
X135752857Y-110571428D02*
X135524285Y-110571428D01*
X135667142Y-110371428D02*
X135667142Y-110885714D01*
X135638571Y-110942857D01*
X135581428Y-110971428D01*
X135524285Y-110971428D01*
X135067142Y-110971428D02*
X135067142Y-110657142D01*
X135095714Y-110600000D01*
X135152857Y-110571428D01*
X135267142Y-110571428D01*
X135324285Y-110600000D01*
X135067142Y-110942857D02*
X135124285Y-110971428D01*
X135267142Y-110971428D01*
X135324285Y-110942857D01*
X135352857Y-110885714D01*
X135352857Y-110828571D01*
X135324285Y-110771428D01*
X135267142Y-110742857D01*
X135124285Y-110742857D01*
X135067142Y-110714285D01*
X134781428Y-110571428D02*
X134781428Y-111171428D01*
X134781428Y-110600000D02*
X134724285Y-110571428D01*
X134610000Y-110571428D01*
X134552857Y-110600000D01*
X134524285Y-110628571D01*
X134495714Y-110685714D01*
X134495714Y-110857142D01*
X134524285Y-110914285D01*
X134552857Y-110942857D01*
X134610000Y-110971428D01*
X134724285Y-110971428D01*
X134781428Y-110942857D01*
X134010000Y-110942857D02*
X134067142Y-110971428D01*
X134181428Y-110971428D01*
X134238571Y-110942857D01*
X134267142Y-110885714D01*
X134267142Y-110657142D01*
X134238571Y-110600000D01*
X134181428Y-110571428D01*
X134067142Y-110571428D01*
X134010000Y-110600000D01*
X133981428Y-110657142D01*
X133981428Y-110714285D01*
X134267142Y-110771428D01*
%LPC*%
D11*
X140190000Y-104070000D03*
D12*
X140190000Y-106610000D03*
X140190000Y-109150000D03*
D13*
X132990000Y-96790000D03*
X130220000Y-96790000D03*
X137145000Y-99630000D03*
D14*
X153120000Y-103260000D03*
D11*
X135200000Y-104080000D03*
D12*
X135200000Y-106620000D03*
X135200000Y-109160000D03*
D14*
X136950000Y-93740000D03*
M02*
