G04 #@! TF.GenerationSoftware,KiCad,Pcbnew,(6.0.6-0)*
G04 #@! TF.CreationDate,2022-09-13T12:01:24-04:00*
G04 #@! TF.ProjectId,DA-15 Board,44412d31-3520-4426-9f61-72642e6b6963,1*
G04 #@! TF.SameCoordinates,Original*
G04 #@! TF.FileFunction,Copper,L1,Top*
G04 #@! TF.FilePolarity,Positive*
%FSLAX46Y46*%
G04 Gerber Fmt 4.6, Leading zero omitted, Abs format (unit mm)*
G04 Created by KiCad (PCBNEW (6.0.6-0)) date 2022-09-13 12:01:24*
%MOMM*%
%LPD*%
G01*
G04 APERTURE LIST*
G04 Aperture macros list*
%AMRoundRect*
0 Rectangle with rounded corners*
0 $1 Rounding radius*
0 $2 $3 $4 $5 $6 $7 $8 $9 X,Y pos of 4 corners*
0 Add a 4 corners polygon primitive as box body*
4,1,4,$2,$3,$4,$5,$6,$7,$8,$9,$2,$3,0*
0 Add four circle primitives for the rounded corners*
1,1,$1+$1,$2,$3*
1,1,$1+$1,$4,$5*
1,1,$1+$1,$6,$7*
1,1,$1+$1,$8,$9*
0 Add four rect primitives between the rounded corners*
20,1,$1+$1,$2,$3,$4,$5,0*
20,1,$1+$1,$4,$5,$6,$7,0*
20,1,$1+$1,$6,$7,$8,$9,0*
20,1,$1+$1,$8,$9,$2,$3,0*%
%AMFreePoly0*
4,1,22,0.500000,-0.750000,0.000000,-0.750000,0.000000,-0.745033,-0.079941,-0.743568,-0.215256,-0.701293,-0.333266,-0.622738,-0.424486,-0.514219,-0.481581,-0.384460,-0.499164,-0.250000,-0.500000,-0.250000,-0.500000,0.250000,-0.499164,0.250000,-0.499963,0.256109,-0.478152,0.396186,-0.417904,0.524511,-0.324060,0.630769,-0.204165,0.706417,-0.067858,0.745374,0.000000,0.744959,0.000000,0.750000,
0.500000,0.750000,0.500000,-0.750000,0.500000,-0.750000,$1*%
%AMFreePoly1*
4,1,20,0.000000,0.744959,0.073905,0.744508,0.209726,0.703889,0.328688,0.626782,0.421226,0.519385,0.479903,0.390333,0.500000,0.250000,0.500000,-0.250000,0.499851,-0.262216,0.476331,-0.402017,0.414519,-0.529596,0.319384,-0.634700,0.198574,-0.708877,0.061801,-0.746166,0.000000,-0.745033,0.000000,-0.750000,-0.500000,-0.750000,-0.500000,0.750000,0.000000,0.750000,0.000000,0.744959,
0.000000,0.744959,$1*%
G04 Aperture macros list end*
G04 #@! TA.AperFunction,SMDPad,CuDef*
%ADD10FreePoly0,270.000000*%
G04 #@! TD*
G04 #@! TA.AperFunction,SMDPad,CuDef*
%ADD11FreePoly1,270.000000*%
G04 #@! TD*
G04 #@! TA.AperFunction,SMDPad,CuDef*
%ADD12RoundRect,0.375000X1.125000X0.375000X-1.125000X0.375000X-1.125000X-0.375000X1.125000X-0.375000X0*%
G04 #@! TD*
G04 #@! TA.AperFunction,ComponentPad*
%ADD13R,1.295400X1.295400*%
G04 #@! TD*
G04 #@! TA.AperFunction,ComponentPad*
%ADD14C,1.295400*%
G04 #@! TD*
G04 #@! TA.AperFunction,ComponentPad*
%ADD15C,1.600000*%
G04 #@! TD*
G04 #@! TA.AperFunction,ComponentPad*
%ADD16C,1.300000*%
G04 #@! TD*
G04 #@! TA.AperFunction,ViaPad*
%ADD17C,0.700000*%
G04 #@! TD*
G04 #@! TA.AperFunction,Conductor*
%ADD18C,0.250000*%
G04 #@! TD*
G04 APERTURE END LIST*
D10*
X143570000Y-103180000D03*
D11*
X143570000Y-104480000D03*
D12*
X151200000Y-106031000D03*
X151200000Y-108571000D03*
X151200000Y-111111000D03*
D13*
X140190000Y-104070000D03*
D14*
X140190000Y-106610000D03*
X140190000Y-109150000D03*
D15*
X132990000Y-96790000D03*
X130220000Y-96790000D03*
X137145000Y-99630000D03*
D16*
X153120000Y-103260000D03*
D13*
X135200000Y-104080000D03*
D14*
X135200000Y-106620000D03*
X135200000Y-109160000D03*
D10*
X131810000Y-103170000D03*
D11*
X131810000Y-104470000D03*
D16*
X136950000Y-93740000D03*
D17*
X142950000Y-109150000D03*
D18*
X140190000Y-109150000D02*
X138215000Y-111125000D01*
X138215000Y-111125000D02*
X130325000Y-111125000D01*
X130325000Y-111125000D02*
X127875000Y-108675000D01*
X127875000Y-108675000D02*
X127875000Y-96295000D01*
X127875000Y-96295000D02*
X131980000Y-92190000D01*
X131980000Y-92190000D02*
X135550000Y-92190000D01*
X135550000Y-92190000D02*
X136920000Y-93560000D01*
X142950000Y-109150000D02*
X144910000Y-111110000D01*
X144910000Y-111110000D02*
X151200000Y-111110000D01*
X128750000Y-100010000D02*
X130165000Y-101425000D01*
X128750000Y-96580000D02*
X128750000Y-100010000D01*
X130130000Y-96700000D02*
X129610000Y-96180000D01*
X129150000Y-96180000D02*
X128750000Y-96580000D01*
X129610000Y-96180000D02*
X129150000Y-96180000D01*
X145815000Y-101425000D02*
X150420000Y-106030000D01*
X150420000Y-106030000D02*
X151200000Y-106030000D01*
X130165000Y-101425000D02*
X145815000Y-101425000D01*
X151200000Y-108571000D02*
X149346000Y-108571000D01*
X139020000Y-107900000D02*
X135200000Y-104080000D01*
X148675000Y-107900000D02*
X139020000Y-107900000D01*
X149346000Y-108571000D02*
X148675000Y-107900000D01*
X135200000Y-104080000D02*
X134290000Y-103170000D01*
X134290000Y-103170000D02*
X131810000Y-103170000D01*
X140190000Y-104070000D02*
X141080000Y-103180000D01*
X141080000Y-103180000D02*
X143570000Y-103180000D01*
X135200000Y-106620000D02*
X133040000Y-104460000D01*
X133040000Y-104460000D02*
X131820000Y-104460000D01*
X140190000Y-106610000D02*
X142320000Y-104480000D01*
X142320000Y-104480000D02*
X143570000Y-104480000D01*
M02*
